<svg width="80" height="80" viewBox="0 0 80 80" fill="none" xmlns="http://www.w3.org/2000/svg">
<g id="Layer 1">
<g id="Group">
<path id="Vector" d="M79.9958 5.41464C79.65 6.81017 78.7605 7.81912 77.7897 8.80682C71.7004 14.9879 65.6362 21.1945 59.549 27.3756C59.1073 27.8238 58.9553 28.1679 59.2511 28.7924C60.1344 30.6616 60.0094 32.5563 59.1344 34.3958C57.8137 37.1656 55.9263 39.4851 53.4993 41.3055C51.9931 42.4333 50.3765 43.4147 48.812 44.4597C48.5808 44.6148 48.3496 44.7698 47.9454 45.0417C49.987 45.4474 51.8619 45.7129 53.6764 46.2079C56.0075 46.8408 58.3407 47.5248 60.5802 48.4275C63.5488 49.6234 64.9904 52.835 64.3092 56.172C63.1925 61.6479 62.0884 67.1281 60.9802 72.6061C60.9697 72.6549 60.9843 72.708 60.9947 72.8504C61.7114 73.0415 62.4488 73.2688 63.1988 73.4345C65.2133 73.8784 66.6028 75.0382 67.3569 77.0157C67.4361 77.2239 67.8527 77.4172 68.1131 77.4193C71.4713 77.4469 74.8294 77.4554 78.1876 77.4214C78.9501 77.4129 79.5563 77.5913 80 78.2328V79.1887C79.5604 79.8408 78.9542 80.0001 78.1918 80.0001C52.7327 79.9831 27.2736 79.9831 1.81449 80.0001C1.05203 80.0001 0.447893 79.8344 0.00624967 79.1887V78.2328C0.664549 77.1347 1.81032 77.5319 2.77277 77.4065C2.47487 76.7035 2.20197 76.1066 1.9624 75.4949C1.29785 73.8105 0.652049 72.1175 0 70.4268C0 69.8426 0 69.2585 0 68.6744C0.462476 67.0452 1.59158 66.0341 2.94776 65.1484C5.77262 63.3004 8.61622 61.4673 11.3077 59.4303C13.8326 57.5187 16.1617 55.3415 18.5928 53.3002C22.028 50.4157 25.4403 47.4993 28.9381 44.6955C30.8942 43.1279 33.1795 42.0128 34.9711 40.1946C35.5356 39.6232 36.3044 39.723 36.771 40.2816C37.2022 40.7978 37.1814 41.5582 36.6231 42.0659C35.6523 42.9495 34.6169 43.7567 33.6462 44.6382C33.3587 44.8994 33.0795 45.2775 32.9962 45.6492C32.5671 47.5673 32.742 49.445 33.5587 51.242C34.2003 52.6566 35.2253 53.6337 36.6585 54.2114C38.7001 55.0335 40.802 55.2841 42.9915 55.333C47.1517 55.4222 51.3098 55.6834 55.4659 55.9043C56.5971 55.9638 56.97 56.4587 56.8554 57.6312C56.7012 59.2158 56.5033 60.794 56.3262 62.3765C56.2971 62.6313 56.2762 62.8884 56.245 63.2282C57.5366 63.2282 58.7553 63.2473 59.9719 63.2049C60.1302 63.1985 60.376 62.9032 60.4177 62.7057C60.9489 60.1632 61.4822 57.6227 61.9447 55.0675C62.2968 53.1175 61.0572 51.2611 59.0698 50.5198C55.9596 49.36 52.7702 48.5295 49.5058 47.9602C46.3059 47.4037 43.1144 46.7899 39.9188 46.2079C39.1834 46.074 38.7105 45.5366 38.7542 44.8548C38.8001 44.1326 39.3792 43.6101 40.1521 43.6802C41.1624 43.7715 42.1728 43.8841 43.1707 44.0668C43.9831 44.2155 44.6685 44.0944 45.3726 43.6228C47.4579 42.2231 49.6183 40.9359 51.6827 39.5063C53.8284 38.0195 55.4367 35.9995 56.695 33.7012C57.3033 32.5882 57.6178 31.4008 57.0137 30.0223C56.6033 30.4258 56.245 30.7869 55.8763 31.1395C55.1471 31.8362 54.4347 31.9021 53.8951 31.3286C53.3618 30.7636 53.4451 30.0159 54.1368 29.3086C61.5176 21.7787 68.9027 14.2487 76.2835 6.71884C76.5231 6.47457 76.7731 6.23879 76.9856 5.97328C77.6751 5.11514 77.6501 3.983 76.9439 3.21408C76.2085 2.41542 75.0857 2.33046 74.1836 3.00167C73.9753 3.15673 73.7753 3.3564 73.5399 3.43711C72.9608 3.63465 72.4462 3.47747 72.1025 2.94857C71.715 2.3517 71.84 1.79306 72.3129 1.29178C74.4753 -1.00224 78.5168 -0.105877 79.6792 2.92945C79.7917 3.22258 79.8875 3.5242 79.9917 3.82157V5.41464H79.9958ZM52.4181 77.4044C51.789 76.0238 52.0369 74.7344 52.4056 73.443C52.5223 73.0373 52.6181 72.6188 52.666 72.2004C53.0868 68.6468 53.4951 65.091 53.9034 61.5353C54.0243 60.4903 54.1305 59.4452 54.2493 58.3534C54.0139 58.3279 53.8639 58.3003 53.7118 58.2939C49.9703 58.1431 46.2247 58.0476 42.4853 57.8224C40.7604 57.7183 39.0501 57.353 37.3314 57.13C37.0168 57.0896 36.6502 57.0811 36.371 57.2064C32.3608 59.031 28.3673 60.8938 24.3591 62.7184C19.3657 64.9933 14.5159 67.5338 10.0016 70.6965C9.76824 70.8601 9.45992 71.2106 9.49117 71.4272C9.78074 73.4154 10.137 75.395 10.4786 77.4044H52.416H52.4181ZM30.2588 46.826C29.8172 47.1616 29.5193 47.3697 29.2401 47.6013C27.5111 49.0457 25.7757 50.4858 24.0592 51.9472C20.8468 54.6872 17.6449 57.4379 14.4534 60.2014C14.2576 60.3713 14.0284 60.7494 14.0889 60.9363C14.4576 62.06 14.9076 63.1581 15.3096 64.2117C21.4885 61.3187 27.6131 58.449 33.7982 55.5539C31.1734 53.3066 30.2109 50.3647 30.2568 46.8238L30.2588 46.826ZM7.935 77.3641C7.65169 75.7009 7.3642 74.0866 7.09963 72.468C6.62674 69.5771 6.38717 70.0105 8.82454 68.4259C10.264 67.4892 11.7056 66.5524 13.1576 65.6072C12.7077 64.4347 12.2848 63.3344 11.8411 62.1789C8.93495 64.1607 6.09968 66.0766 3.28525 68.0244C2.59778 68.5002 2.30613 69.2352 2.59986 70.0487C3.26025 71.8881 3.93521 73.7234 4.69559 75.5203C5.24348 76.8139 6.53091 77.4958 7.93709 77.3641H7.935ZM56.0825 65.8196C55.5992 68.8741 55.1763 71.8329 54.6451 74.7727C54.3472 76.4273 55.0305 77.4342 56.6658 77.4363C59.1094 77.4405 61.5531 77.4384 63.9967 77.4363C64.2154 77.4363 64.4341 77.4108 64.7279 77.3938C64.3029 76.5845 63.6904 76.1958 62.9363 76.0025C61.8801 75.7306 60.8218 75.463 59.7636 75.1954C58.3178 74.83 58.0574 74.4031 58.3574 72.9417C58.8386 70.5882 59.3094 68.2326 59.7948 65.8217H56.0846L56.0825 65.8196Z" fill="url(#paint0_linear_8_723)"/>
<path id="Vector_2" d="M51.2265 22.9214C50.1807 22.35 49.3474 21.8954 48.435 21.3963C48.1662 22.2693 47.9183 23.0977 47.6558 23.9197C46.5934 27.2609 45.1851 30.4428 43.4081 33.4547C42.9248 34.2746 42.252 34.5062 41.5853 34.1111C40.9187 33.7181 40.7729 33.0002 41.252 32.1803C42.8936 29.3659 44.2269 26.4112 45.2206 23.2994C45.5664 22.2162 45.8663 21.118 46.1518 20.0177C46.2101 19.7968 46.1955 19.4548 46.0643 19.2976C44.5331 17.4646 43.6644 15.349 43.4248 12.9402C43.0373 12.8829 42.6811 12.8425 42.329 12.7746C39.7479 12.2796 38.1959 9.69675 38.9563 7.13297C39.2125 6.27058 39.5292 5.42944 39.8312 4.58193C40.4416 2.87416 41.6666 1.89283 43.3977 1.64219C45.0643 1.40216 46.4705 1.97779 47.5392 3.33296C47.6371 3.45616 47.7288 3.58361 47.86 3.75566C51.0723 2.34738 54.1472 2.56829 56.9283 4.83045C59.7677 7.14146 60.0864 10.3807 59.7823 13.9747C60.1239 13.6688 60.2989 13.5329 60.4531 13.3757C62.0197 11.7826 63.58 10.1832 65.1466 8.59009C67.0132 6.69328 68.0569 4.4205 68.1756 1.7229C68.1839 1.5381 68.1902 1.35118 68.2173 1.16851C68.3277 0.442073 68.8214 -0.0124834 69.4714 0.000261182C70.1505 0.0151298 70.663 0.533409 70.6755 1.29808C70.7026 2.99098 70.3713 4.61592 69.7297 6.17925C69.0985 7.71709 68.2048 9.07439 67.0507 10.2511C61.7905 15.623 56.5262 20.9906 51.2598 26.356C50.5224 27.1079 49.6932 27.1547 49.1724 26.4983C48.7599 25.9779 48.7808 25.311 49.2933 24.7736C49.8536 24.1852 50.464 23.6457 51.2244 22.9214H51.2265ZM56.1846 7.74683C54.5159 5.45069 51.2432 4.74549 48.8683 6.16226C48.6204 6.30882 48.4412 6.65717 48.335 6.95029C47.7225 8.62196 47.4975 10.4763 46.0955 11.7699C46.008 11.8506 45.933 11.9929 45.9309 12.1097C45.9059 13.707 46.3226 15.1663 47.2309 16.5894C47.4413 16.0775 47.5954 15.6867 47.76 15.3001C48.1162 14.4696 48.7245 14.1382 49.4141 14.3952C50.1286 14.6608 50.3911 15.3787 50.0682 16.2496C49.7661 17.0652 49.4391 17.8703 49.1141 18.7029C50.2057 19.6333 51.4265 20.1983 52.7702 20.4468C53.0847 20.5041 53.5451 20.3746 53.7764 20.1537C54.8617 19.1235 55.9054 18.0487 56.9262 16.9505C57.147 16.7126 57.3199 16.3218 57.3262 15.9989C57.3657 14.3549 57.3449 12.7087 57.3387 11.0647C57.3387 10.8756 57.2949 10.6845 57.2595 10.4083C57.0158 10.6165 56.8616 10.7545 56.7012 10.8862C55.0325 12.2308 53.1431 12.9466 51.0057 12.9232C50.3411 12.9169 49.9245 12.5622 49.8266 11.8909C49.7307 11.241 49.9557 10.7269 50.5994 10.5082C50.889 10.4104 51.2098 10.3913 51.5181 10.3637C53.4368 10.1938 54.9846 9.34202 56.1846 7.74683ZM43.8185 4.138C43.1436 4.1741 42.5165 4.57556 42.202 5.40183C41.9186 6.13889 41.6666 6.89082 41.4207 7.64275C41.0416 8.79613 41.4541 9.78596 42.4644 10.1895C43.4873 10.5974 44.5539 10.1237 44.9956 9.01279C45.3164 8.20563 45.6059 7.38149 45.8476 6.54672C46.208 5.29987 45.2935 4.1295 43.8185 4.14012V4.138Z" fill="url(#paint1_linear_8_723)"/>
<path id="Vector_3" d="M39.25 38.5928C38.5563 38.6077 37.9938 38.0703 37.9751 37.3778C37.9563 36.6514 38.6813 35.8634 39.3813 35.8464C40.0729 35.8315 40.6229 36.3647 40.6395 37.0698C40.6583 37.8345 39.9812 38.578 39.25 38.5928Z" fill="url(#paint2_linear_8_723)"/>
</g>
</g>
<defs>
<linearGradient id="paint0_linear_8_723" x1="40" y1="0.000854492" x2="40" y2="80.0001" gradientUnits="userSpaceOnUse">
<stop stop-color="#B9D421"/>
<stop offset="1" stop-color="#72C76B"/>
</linearGradient>
<linearGradient id="paint1_linear_8_723" x1="54.7198" y1="0" x2="54.7198" y2="34.2991" gradientUnits="userSpaceOnUse">
<stop stop-color="#B9D421"/>
<stop offset="1" stop-color="#72C76B"/>
</linearGradient>
<linearGradient id="paint2_linear_8_723" x1="39.3073" y1="35.8461" x2="39.3073" y2="38.5931" gradientUnits="userSpaceOnUse">
<stop stop-color="#B9D421"/>
<stop offset="1" stop-color="#72C76B"/>
</linearGradient>
</defs>
</svg>
