<svg width="80" height="80" viewBox="0 0 80 80" fill="none" xmlns="http://www.w3.org/2000/svg">
<g id="Asset 1 2" clip-path="url(#clip0_8_710)">
<g id="Layer 1">
<g id="Group">
<path id="Vector" d="M14.375 80C13.25 79.4938 12.0313 79.1271 11.0229 78.4458C9.49583 77.4146 8.64792 75.8417 8.41458 74.0021C8.125 71.7208 8.20417 69.4833 9.68333 67.3583C8.97083 67.3583 8.4125 67.3729 7.85417 67.3563C6.28958 67.3063 5.17292 66.1813 5.15 64.6104C5.12917 63.1542 5.13125 61.6958 5.15 60.2396C5.17083 58.65 6.25625 57.5292 7.82708 57.4729C8.63333 57.4438 9.45208 57.3833 10.2438 57.4917C11.0458 57.6021 11.8208 57.9063 12.7854 58.175C13.4646 57.5813 14.3229 56.8313 15.1792 56.0792C16.5667 54.8604 17.9417 53.625 19.3479 52.4271C19.7417 52.0917 19.8854 51.7396 19.8833 51.2271C19.8646 47.4271 19.8708 43.6292 19.8729 39.8292C19.8729 36.2896 21.4396 33.7292 24.7313 32.3688C27.5375 31.2104 30.3979 30.175 33.2333 29.0854C33.4646 28.9958 33.6958 28.9021 34.0271 28.7688C33.7229 28.5375 33.5021 28.3708 33.2854 28.2042C30.3646 25.95 28.7813 22.9917 28.7563 19.2917C28.7438 17.3729 28.7042 15.4146 29.05 13.5458C29.6688 10.2208 31.6729 7.78334 34.5979 6.09168C34.8083 5.96876 35.0396 5.64793 35.0354 5.42293C34.9792 2.72084 36.3542 0.827092 38.9354 0.122925C39.0333 0.0958415 39.125 0.0416748 39.2188 -0.0020752C39.7396 -0.0020752 40.2604 -0.0020752 40.7812 -0.0020752C40.9771 0.0604248 41.1729 0.129175 41.3708 0.187508C43.6083 0.852091 45.0708 2.94376 44.975 5.27292C44.9646 5.53334 45.1333 5.92917 45.3417 6.05209C49.3 8.38126 51.3063 11.825 51.2542 16.4188C51.2354 18.1292 51.2375 19.8688 50.9396 21.5438C50.4375 24.3458 48.8458 26.5479 46.5833 28.2625C46.3979 28.4021 46.2125 28.5417 45.9375 28.7479C46.2396 28.8729 46.4646 28.9729 46.6938 29.0604C49.5563 30.1583 52.4458 31.1938 55.275 32.3667C58.5625 33.7313 60.1312 36.2958 60.1292 39.8396C60.1292 40.8292 60.1354 41.8188 60.1292 42.8083C60.1208 43.7625 59.6604 44.3313 58.925 44.3146C58.2062 44.3 57.7958 43.775 57.7896 42.8417C57.7833 41.6958 57.8062 40.55 57.7833 39.4042C57.7312 36.9021 56.1396 34.9188 53.6729 34.3146C53.55 35.8208 53.4208 37.3146 53.3042 38.8125C52.9542 43.3292 52.5583 47.8417 52.2958 52.3625C52.2313 53.4771 52.5854 54.6188 52.7917 55.7417C52.825 55.925 53.0625 56.1104 53.2479 56.2229C57.9333 59.0833 62.6229 61.9354 67.3167 64.7833C67.4687 64.875 67.6417 64.9958 67.8062 64.9979C69.2125 65.0167 70.6187 65.0292 72.0229 64.9875C72.1917 64.9833 72.4875 64.6438 72.4937 64.4521C72.5354 63.1 72.5375 61.7438 72.4917 60.3917C72.4854 60.1917 72.1625 59.8521 71.9646 59.8354C71.2146 59.7729 70.4437 59.7333 69.7062 59.8521C69.2583 59.925 68.8292 60.2625 68.4437 60.55C67.5437 61.2188 67.1583 61.2354 66.325 60.5063C63.975 58.4458 61.6229 56.3896 59.2896 54.3125C58.9354 53.9979 58.6729 53.8896 58.2146 54.1354C57.5167 54.5083 56.8604 54.2854 56.5521 53.6813C56.2396 53.0688 56.4417 52.4125 57.1792 52.0771C57.7104 51.8333 57.8229 51.5 57.8 50.9813C57.7688 50.2271 57.7792 49.4708 57.7979 48.7167C57.8167 47.9417 58.2292 47.4958 58.9042 47.4708C59.6062 47.4458 60.0958 47.9083 60.125 48.7C60.1583 49.6104 60.1208 50.5229 60.1458 51.4333C60.1521 51.6708 60.2083 51.9896 60.3667 52.1292C62.6958 54.2063 65.0458 56.2604 67.4042 58.3313C69.0771 57.0521 70.9687 57.4167 72.7833 57.5604C73.9208 57.6521 74.8167 58.8229 74.8458 59.9896C74.8875 61.6021 74.8937 63.2188 74.8458 64.8334C74.8042 66.1833 73.6771 67.2708 72.3187 67.3479C71.7229 67.3813 71.1229 67.3542 70.4562 67.3542C70.5042 67.5229 70.5146 67.6479 70.5729 67.7417C71.9208 69.8938 71.9979 72.2563 71.4583 74.6063C70.8042 77.4479 68.8979 79.1667 66.0646 79.8542C65.9187 79.8896 65.7771 79.9521 65.6333 80.0021H46.5708C45.9979 79.6438 45.5917 79.175 45.8354 78.4584C46.0771 77.7479 46.6833 77.6125 47.3583 77.6563C47.5667 77.6688 47.775 77.6563 47.9833 77.6563C53.5021 77.6563 59.0208 77.6646 64.5375 77.6521C67.0604 77.6459 68.9896 75.9833 69.2958 73.4958C69.4021 72.6271 69.3917 71.7188 69.2625 70.8542C68.8708 68.2229 66.5229 66.5146 63.9062 66.9146C61.9542 67.2146 60.0104 67.5708 58.0604 67.8979C52.2917 68.8646 46.5208 69.825 40.7521 70.7917C37.9104 71.2688 35.0708 71.7521 32.2083 72.2375V77.6563C35.1833 77.6563 38.0938 77.6625 41.0063 77.6521C41.6667 77.65 42.2667 77.7063 42.5458 78.4292C42.8313 79.1667 42.3729 79.5896 41.8813 80H14.375ZM26.3271 34.2688C23.5333 35.2 22.2188 36.9854 22.2167 39.7667C22.2125 43.5167 22.2229 47.2646 22.2063 51.0146C22.2042 51.5063 22.2979 51.8208 22.7896 52.0542C23.5396 52.4125 23.7604 53.0271 23.4729 53.6417C23.1729 54.2854 22.5042 54.5146 21.7604 54.1188C21.3208 53.8854 21.0771 54 20.75 54.2896C18.4146 56.3625 16.0646 58.425 13.7146 60.4813C12.8354 61.25 12.4708 61.2208 11.5333 60.5354C11.1104 60.225 10.6125 59.9354 10.1083 59.8396C9.47917 59.7188 8.8125 59.8188 8.16042 59.8042C7.72292 59.7958 7.47708 59.9354 7.48333 60.4271C7.49792 61.7542 7.49583 63.0834 7.48333 64.4104C7.47917 64.8396 7.6625 65.025 8.08959 65.0229C9.39167 65.0146 10.6938 65.0333 11.9958 65.0104C12.2375 65.0063 12.5 64.8938 12.7125 64.7646C17.3854 61.9354 22.0521 59.0979 26.7167 56.2542C26.9063 56.1396 27.1667 55.9688 27.1979 55.7896C27.4042 54.6167 27.7333 53.4292 27.6938 52.2563C27.6083 49.6313 27.3229 47.0125 27.1375 44.3917C27.0833 43.6125 27.5375 43.0688 28.2063 43.0208C28.8313 42.9771 29.325 43.425 29.4479 44.1667C29.4896 44.4229 29.5021 44.6833 29.5208 44.9438C29.6458 46.6042 29.7021 48.275 29.9083 49.925C30.1562 51.9125 30.0417 53.8563 29.625 55.8083C29.2917 57.375 29.0625 58.9646 28.7812 60.5771H51.2208C50.9896 59.2521 50.7542 57.975 50.5458 56.6938C50.3167 55.2854 49.85 53.8563 49.9354 52.4625C50.3208 46.2542 50.8604 40.0563 51.3625 33.8563C51.3979 33.4188 51.3042 33.2083 50.8688 33.0583C49.0271 32.4208 47.2 31.7417 45.3667 31.0813C45.2604 31.0438 45.1417 31.0396 44.9729 31.0104C44.9729 31.6708 44.9792 32.2688 44.9729 32.8646C44.9333 35.8063 42.8187 37.9896 40.0083 37.9917C37.1937 37.9938 35.0708 35.8146 35.0292 32.8792C35.0208 32.2667 35.0292 31.6542 35.0292 30.9438C32.9333 31.6979 30.9521 32.3979 28.9896 33.1479C28.8104 33.2167 28.6521 33.625 28.6667 33.8646C28.7563 35.3708 28.8979 36.875 29.0187 38.3792C29.0875 39.2438 28.7146 39.7958 28.0125 39.8792C27.2583 39.9688 26.7729 39.5167 26.6917 38.6063C26.5625 37.1854 26.4542 35.7646 26.3313 34.2729L26.3271 34.2688ZM31.1688 20.3271C31.2229 20.6667 31.2479 20.9479 31.3125 21.2229C32.2792 25.2417 35.8583 28.0771 39.9833 28.0958C43.9708 28.1125 47.6146 25.2833 48.6 21.35C49.1583 19.125 48.9479 16.8583 48.8 14.6042C48.7771 14.2438 48.6417 13.8938 48.5375 13.4563C43.7396 18.4375 37.7104 19.9979 31.1667 20.3292L31.1688 20.3271ZM27.6979 66.4854C30.7479 66.9938 33.6979 67.4479 36.6313 67.9875C38.6333 68.3563 40.6 68.6292 42.6375 68.1375C44.3 67.7375 46.0125 67.5375 47.7021 67.2521C49.2083 66.9979 50.7146 66.7479 52.3 66.4833C52.0792 65.2833 51.8729 64.1479 51.6625 63H28.3396C28.1271 64.15 27.9229 65.2667 27.6979 66.4854ZM32.6125 69.7708C32.3146 69.675 32.1521 69.6 31.9792 69.5729C26.6708 68.6813 21.3646 67.7646 16.05 66.9167C13.4688 66.5042 11.1292 68.2396 10.75 70.8292C10.6125 71.7688 10.6229 72.7604 10.7521 73.7021C11.025 75.6917 12.4667 77.225 14.4458 77.5209C15.6292 77.6979 16.8583 77.5542 18.0771 77.5542C18.0667 77.5 18.0563 77.425 18.0333 77.3521C17.1771 74.4813 18.6021 72.2063 21.5688 71.6958C25.2042 71.0688 28.8354 70.4313 32.6125 69.7729V69.7708ZM43.4188 7.81459C40.4958 6.43959 36.7354 7.02501 34.1979 9.22501C31.525 11.5438 30.7813 14.5417 31.15 17.9771C37.4438 17.6354 43.1708 16.1438 47.5063 11.0354C46.8333 10.3104 46.2271 9.65626 45.6208 9.00418C44.9479 9.61251 44.3875 10.1563 43.7875 10.6542C42.1479 12.0125 40.3417 13.0771 38.2604 13.6104C37.4813 13.8104 36.8792 13.4938 36.7146 12.8417C36.5417 12.1583 36.8688 11.6375 37.6375 11.3729C37.7854 11.3229 37.9375 11.2854 38.0854 11.2354C40.1208 10.55 41.8479 9.38751 43.4188 7.81667V7.81459ZM29.7583 72.6459C27.0396 73.1188 24.4292 73.5625 21.8208 74.0292C20.6104 74.2458 20.0208 74.9813 20.1313 76.0563C20.2333 77.05 20.9896 77.6479 22.1813 77.6521C24.4979 77.6583 26.8146 77.6563 29.1333 77.6521C29.3313 77.6521 29.5313 77.6229 29.7604 77.6042V72.6459H29.7583ZM54.6188 66.0958C57.2854 65.6479 59.8792 65.2104 62.4729 64.7729C62.4812 64.7146 62.4896 64.6563 62.4979 64.5979C59.5 62.775 56.5 60.9521 53.325 59.0229C53.7792 61.5063 54.1938 63.7708 54.6188 66.0938V66.0958ZM26.6729 59.0208C23.4729 60.9708 20.4896 62.7896 17.2938 64.7354C20.1292 65.2104 22.7229 65.6458 25.3792 66.0917C25.8063 63.7604 26.2188 61.4958 26.6729 59.0188V59.0208ZM37.4354 30.3063C37.4354 31.3125 37.3333 32.4292 37.4625 33.5208C37.6125 34.7979 38.7021 35.6333 39.9542 35.6479C41.2521 35.6646 42.3729 34.8375 42.5312 33.5313C42.6646 32.4396 42.5583 31.3188 42.5583 30.3063H37.4354ZM42.5979 4.84793C42.5854 4.02292 42.2063 3.29168 41.4292 2.78542C40.5229 2.19376 39.5667 2.17084 38.6458 2.73542C37.8333 3.23334 37.4 3.97084 37.4042 4.84793H42.5979Z" fill="url(#paint0_linear_8_710)"/>
<path id="Vector_2" d="M61.4833 24.6312C61.7146 23.6625 61.0917 22.1708 62.7187 22.1812C64.3125 22.1916 63.75 23.6583 63.9333 24.5645C65.0458 24.7916 65.4646 25.1416 65.4583 25.8208C65.4521 26.4937 65.0458 26.8354 63.9271 27.0854C63.775 28.0145 64.2792 29.3416 62.6917 29.4937C61.8937 29.5708 61.6625 29.0458 61.5062 27.1145C60.2875 26.7666 59.9167 26.4395 59.9896 25.7187C60.0771 24.8583 60.6896 24.6458 61.4833 24.6312Z" fill="url(#paint1_linear_8_710)"/>
<path id="Vector_3" d="M55.8896 7.74371C54.725 7.55621 54.3021 7.19996 54.3167 6.47705C54.3313 5.78538 54.7646 5.42705 55.8938 5.25413C55.8938 4.84788 55.8729 4.41455 55.8979 3.98746C55.9396 3.28746 56.3854 2.83538 57.0104 2.81663C57.6354 2.79788 58.1313 3.22705 58.2042 3.91455C58.25 4.34788 58.2125 4.78955 58.2125 5.2083C59.4021 5.49163 59.8396 5.88538 59.7938 6.57496C59.7479 7.24371 59.3042 7.58955 58.2271 7.71663C58.2271 8.10621 58.2458 8.51246 58.2229 8.91663C58.175 9.73121 57.7333 10.1854 57.0333 10.1791C56.3313 10.1729 55.9229 9.71663 55.8917 8.88538C55.8792 8.52496 55.8896 8.16246 55.8896 7.74788V7.74371Z" fill="url(#paint2_linear_8_710)"/>
<path id="Vector_4" d="M20.5229 19.0208C20.7375 18.0667 20.1229 16.5375 21.8188 16.6062C23.2833 16.6646 22.8104 18.0292 22.9563 18.9875C23.7313 19.1021 24.5333 19.3083 24.4646 20.3292C24.4083 21.1542 23.7896 21.4292 22.9167 21.4333C22.9167 21.8521 22.9375 22.2583 22.9125 22.6625C22.8625 23.4687 22.4146 23.9271 21.7188 23.9187C21.0229 23.9104 20.6104 23.4458 20.5813 22.6229C20.5688 22.2625 20.5792 21.9 20.5792 21.6646C20.0563 21.3687 19.5938 21.1687 19.2167 20.8667C19.0583 20.7396 19.0083 20.3896 19.025 20.1479C19.0958 19.2437 19.7792 19.075 20.5229 19.0167V19.0208Z" fill="url(#paint3_linear_8_710)"/>
<path id="Vector_5" d="M39.9917 47.3396C38.1313 48.8583 36.0688 49.3416 33.7792 48.5854C33.3167 48.4333 32.8646 48.2021 32.4542 47.9375C31.8771 47.5646 31.7479 46.9166 32.0708 46.3687C32.3854 45.8354 33.0104 45.6771 33.6354 45.9375C34.1833 46.1646 34.7313 46.4625 35.3042 46.5416C36.7875 46.7437 37.9958 46.1937 38.9188 45C39.6208 44.0916 40.3646 44.1021 41.0833 45.0021C42.3854 46.6333 44.2521 47.0375 46.0958 46.0875C46.9292 45.6583 47.5729 45.7604 47.9292 46.3771C48.3042 47.0271 48.0479 47.7021 47.2 48.1479C44.9792 49.3125 42.8063 49.2021 40.6958 47.8479C40.4583 47.6958 40.2375 47.5187 39.9896 47.3416L39.9917 47.3396Z" fill="url(#paint4_linear_8_710)"/>
</g>
</g>
</g>
<defs>
<linearGradient id="paint0_linear_8_710" x1="40.0073" y1="-0.0020752" x2="40.0073" y2="80.0021" gradientUnits="userSpaceOnUse">
<stop offset="0.151042" stop-color="#B9D421"/>
<stop offset="1" stop-color="#73C76C"/>
</linearGradient>
<linearGradient id="paint1_linear_8_710" x1="62.7196" y1="22.1812" x2="62.7196" y2="29.5009" gradientUnits="userSpaceOnUse">
<stop offset="0.151042" stop-color="#B9D421"/>
<stop offset="1" stop-color="#73C76C"/>
</linearGradient>
<linearGradient id="paint2_linear_8_710" x1="57.0567" y1="2.81604" x2="57.0567" y2="10.1792" gradientUnits="userSpaceOnUse">
<stop offset="0.151042" stop-color="#B9D421"/>
<stop offset="1" stop-color="#73C76C"/>
</linearGradient>
<linearGradient id="paint3_linear_8_710" x1="21.7453" y1="16.604" x2="21.7453" y2="23.9189" gradientUnits="userSpaceOnUse">
<stop offset="0.151042" stop-color="#B9D421"/>
<stop offset="1" stop-color="#73C76C"/>
</linearGradient>
<linearGradient id="paint4_linear_8_710" x1="39.9975" y1="44.3229" x2="39.9975" y2="48.9487" gradientUnits="userSpaceOnUse">
<stop offset="0.151042" stop-color="#B9D421"/>
<stop offset="1" stop-color="#73C76C"/>
</linearGradient>
<clipPath id="clip0_8_710">
<rect width="80" height="80" fill="white"/>
</clipPath>
</defs>
</svg>
