<svg width="80" height="80" viewBox="0 0 80 80" fill="none" xmlns="http://www.w3.org/2000/svg">
<g id="Asset 2 1" clip-path="url(#clip0_8_747)">
<g id="Layer 1">
<g id="Group">
<path id="Vector" d="M0 38.75C0.396484 37.9472 1.07617 37.7304 1.92578 37.7187C6.11328 37.666 10.2109 38.2148 14.207 39.4824C14.498 39.5742 14.7969 39.6503 15.1875 39.7597C15.2637 38.7753 15.3281 37.8574 15.4043 36.9394C15.707 33.3378 16.5566 29.8652 17.8652 26.5019C18.3887 25.1543 19.0508 24.8242 20.3379 25.4785C22.5781 26.6191 24.7695 27.8515 26.9805 29.0507C27.2051 29.1718 27.418 29.3203 27.6211 29.4453C28.7441 27.5566 29.7988 25.6757 30.9531 23.8613C33.1816 20.3593 35.7988 17.1621 38.7188 14.2148C39.5781 13.3476 40.2988 13.373 41.1934 14.2812C45.3633 18.5156 48.8496 23.2519 51.6328 28.5078C51.791 28.8046 51.9551 29.0976 52.1621 29.4785C52.4375 29.3085 52.6836 29.1386 52.9434 28.998C55.1562 27.8046 57.3535 26.58 59.5938 25.4414C60.7832 24.8378 61.4551 25.1796 61.9512 26.4453C63.5332 30.4746 64.4297 34.6484 64.5781 38.9804C64.5859 39.205 64.6211 39.4296 64.6484 39.7089C66.0039 39.3496 67.293 38.9726 68.5977 38.6699C71.6484 37.9609 74.7461 37.666 77.875 37.7304C79.4629 37.7636 79.9043 38.2539 79.8184 39.8378C78.8359 57.6777 66.0039 72.5703 48.4707 75.8339C39.7344 77.4609 31.0449 76.9843 22.8438 73.1503C11.0391 67.6308 3.67578 58.4394 0.800781 45.6933C0.414062 43.9785 0.259766 42.2128 0 40.4707C0 39.8984 0 39.3242 0 38.7519L0 38.75ZM41.4883 73.6894C60.9395 73.8066 76.2422 57.3339 76.8184 40.6152C58.6875 40.3886 42.5605 55.2636 41.4883 73.6894ZM2.9043 40.6269C3.70312 49.9375 7.49805 57.8027 14.293 64.123C21.043 70.4023 29.1074 73.5898 38.3691 73.75C37.1836 54.7734 20.6484 40.3242 2.9043 40.6269ZM59.6894 28.4824C55.5527 30.3203 51.9355 32.8632 48.8203 36.0839C42.832 42.2714 39.5371 49.707 38.709 58.2773C38.459 60.8632 38.7363 63.3222 39.9805 65.7519C40.1387 65.25 40.2695 64.8164 40.4121 64.3847C42.5742 57.8144 46.2324 52.2285 51.373 47.6113C54.334 44.9511 57.6172 42.7871 61.2441 41.1523C61.6621 40.9648 61.8223 40.7304 61.7871 40.2695C61.7012 39.1289 61.6973 37.9824 61.5918 36.8437C61.3281 33.9843 60.6758 31.2089 59.6934 28.4824H59.6894ZM29.9668 31.2539C34.1016 34.7285 37.4043 38.8496 39.9258 43.7793C42.459 38.832 45.7461 34.7207 49.877 31.2519C47.2598 25.9882 43.9609 21.2753 39.918 17.0273C35.8652 21.3007 32.5664 25.9961 29.9648 31.2539H29.9668ZM35.9766 56.6875C36.043 56.5175 36.0859 56.4472 36.0957 56.373C36.4824 53.3437 37.2266 50.4023 38.2715 47.5332C38.3477 47.3222 38.3027 47.0175 38.209 46.8027C34.5234 38.416 28.4512 32.3828 20.1875 28.4589C20.1055 28.6582 20.0273 28.8183 19.9707 28.9863C18.7754 32.5625 18.1035 36.2265 18.0566 40.0058C18.0488 40.6699 18.2031 41.0078 18.8281 41.2968C24.8984 44.0918 29.9102 48.207 33.8633 53.6035C34.582 54.5839 35.2402 55.6093 35.9766 56.6875Z" fill="url(#paint0_linear_8_747)"/>
<path id="Vector_2" d="M39.9121 6.24027C39.1679 6.23441 38.5215 5.58012 38.5273 4.83598C38.5332 4.08793 39.1836 3.44145 39.9277 3.44731C40.6679 3.45121 41.3203 4.11137 41.3164 4.8516C41.3125 5.59379 40.6543 6.24613 39.914 6.24027H39.9121Z" fill="url(#paint1_linear_8_747)"/>
<path id="Vector_3" d="M59.1055 16.4981C59.1269 15.7481 59.7832 15.1309 60.539 15.1524C61.2949 15.1739 61.9199 15.8321 61.8926 16.5782C61.8652 17.3184 61.1855 17.9649 60.457 17.9395C59.7168 17.9141 59.082 17.2364 59.1035 16.4981H59.1055Z" fill="url(#paint2_linear_8_747)"/>
<path id="Vector_4" d="M2.17191 30.8027C2.91214 30.7851 3.5723 31.4277 3.58597 32.1797C3.60159 32.9355 2.97855 33.582 2.22073 33.5957C1.46292 33.6094 0.814483 32.9863 0.798858 32.2305C0.783233 31.5 1.43753 30.8203 2.16995 30.8047L2.17191 30.8027Z" fill="url(#paint3_linear_8_747)"/>
<path id="Vector_5" d="M19.3828 15.1523C20.1367 15.1718 20.7598 15.8281 20.7364 16.5761C20.7129 17.3222 20.043 17.9629 19.3106 17.9394C18.5801 17.916 17.9278 17.2285 17.9492 16.5019C17.9707 15.7519 18.6309 15.1328 19.3828 15.1523Z" fill="url(#paint4_linear_8_747)"/>
<path id="Vector_6" d="M79.0449 32.2012C79.0449 32.9512 78.4043 33.5918 77.6484 33.5937C76.8867 33.5937 76.2598 32.9707 76.2578 32.207C76.2578 31.4492 76.8926 30.8047 77.6426 30.8027C78.373 30.8027 79.043 31.4687 79.0449 32.2031V32.2012Z" fill="url(#paint5_linear_8_747)"/>
</g>
</g>
</g>
<defs>
<linearGradient id="paint0_linear_8_747" x1="39.9143" y1="13.5818" x2="39.9143" y2="76.7154" gradientUnits="userSpaceOnUse">
<stop stop-color="#B9D421"/>
<stop offset="0.65625" stop-color="#76C86F"/>
</linearGradient>
<linearGradient id="paint1_linear_8_747" x1="39.9218" y1="3.44727" x2="39.9218" y2="6.24031" gradientUnits="userSpaceOnUse">
<stop stop-color="#B9D421"/>
<stop offset="0.65625" stop-color="#76C86F"/>
</linearGradient>
<linearGradient id="paint2_linear_8_747" x1="60.4982" y1="15.1519" x2="60.4982" y2="17.9402" gradientUnits="userSpaceOnUse">
<stop stop-color="#B9D421"/>
<stop offset="0.65625" stop-color="#76C86F"/>
</linearGradient>
<linearGradient id="paint3_linear_8_747" x1="2.19242" y1="30.8024" x2="2.19242" y2="33.5959" gradientUnits="userSpaceOnUse">
<stop stop-color="#B9D421"/>
<stop offset="0.65625" stop-color="#76C86F"/>
</linearGradient>
<linearGradient id="paint4_linear_8_747" x1="19.3429" y1="15.1519" x2="19.3429" y2="17.94" gradientUnits="userSpaceOnUse">
<stop stop-color="#B9D421"/>
<stop offset="0.65625" stop-color="#76C86F"/>
</linearGradient>
<linearGradient id="paint5_linear_8_747" x1="77.6514" y1="30.8027" x2="77.6514" y2="33.5937" gradientUnits="userSpaceOnUse">
<stop stop-color="#B9D421"/>
<stop offset="0.65625" stop-color="#76C86F"/>
</linearGradient>
<clipPath id="clip0_8_747">
<rect width="80" height="80" fill="white"/>
</clipPath>
</defs>
</svg>
