<svg width="80" height="80" viewBox="0 0 80 80" fill="none" xmlns="http://www.w3.org/2000/svg">
<g id="Asset 1 2" clip-path="url(#clip0_105_213)">
<g id="Layer 1">
<g id="Group">
<path id="Vector" d="M14.375 80.0001C13.25 79.4939 12.0313 79.1272 11.0229 78.446C9.49583 77.4147 8.64792 75.8418 8.41458 74.0022C8.125 71.721 8.20417 69.4835 9.68333 67.3585C8.97083 67.3585 8.4125 67.3731 7.85417 67.3564C6.28958 67.3064 5.17292 66.1814 5.15 64.6105C5.12917 63.1543 5.13125 61.696 5.15 60.2397C5.17083 58.6501 6.25625 57.5293 7.82708 57.473C8.63333 57.4439 9.45208 57.3835 10.2438 57.4918C11.0458 57.6022 11.8208 57.9064 12.7854 58.1751C13.4646 57.5814 14.3229 56.8314 15.1792 56.0793C16.5667 54.8605 17.9417 53.6251 19.3479 52.4272C19.7417 52.0918 19.8854 51.7397 19.8833 51.2272C19.8646 47.4272 19.8708 43.6293 19.8729 39.8293C19.8729 36.2897 21.4396 33.7293 24.7313 32.3689C27.5375 31.2105 30.3979 30.1751 33.2333 29.0855C33.4646 28.996 33.6958 28.9022 34.0271 28.7689C33.7229 28.5376 33.5021 28.371 33.2854 28.2043C30.3646 25.9501 28.7813 22.9918 28.7563 19.2918C28.7438 17.373 28.7042 15.4147 29.05 13.546C29.6688 10.221 31.6729 7.78346 34.5979 6.0918C34.8083 5.96888 35.0396 5.64805 35.0354 5.42305C34.9792 2.72096 36.3542 0.827214 38.9354 0.123047C39.0333 0.0959635 39.125 0.0417969 39.2188 -0.00195312C39.7396 -0.00195312 40.2604 -0.00195312 40.7812 -0.00195312C40.9771 0.0605469 41.1729 0.129297 41.3708 0.18763C43.6083 0.852214 45.0708 2.94388 44.975 5.27305C44.9646 5.53346 45.1333 5.9293 45.3417 6.05221C49.3 8.38138 51.3063 11.8251 51.2542 16.4189C51.2354 18.1293 51.2375 19.8689 50.9396 21.5439C50.4375 24.346 48.8458 26.548 46.5833 28.2626C46.3979 28.4022 46.2125 28.5418 45.9375 28.748C46.2396 28.873 46.4646 28.973 46.6938 29.0605C49.5563 30.1585 52.4458 31.1939 55.275 32.3668C58.5625 33.7314 60.1312 36.296 60.1292 39.8397C60.1292 40.8293 60.1354 41.8189 60.1292 42.8085C60.1208 43.7626 59.6604 44.3314 58.925 44.3147C58.2062 44.3001 57.7958 43.7751 57.7896 42.8418C57.7833 41.696 57.8062 40.5501 57.7833 39.4043C57.7312 36.9022 56.1396 34.9189 53.6729 34.3147C53.55 35.821 53.4208 37.3147 53.3042 38.8126C52.9542 43.3293 52.5583 47.8418 52.2958 52.3626C52.2313 53.4772 52.5854 54.6189 52.7917 55.7418C52.825 55.9251 53.0625 56.1105 53.2479 56.223C57.9333 59.0835 62.6229 61.9356 67.3167 64.7835C67.4687 64.8751 67.6417 64.996 67.8062 64.998C69.2125 65.0168 70.6187 65.0293 72.0229 64.9876C72.1917 64.9835 72.4875 64.6439 72.4937 64.4522C72.5354 63.1001 72.5375 61.7439 72.4917 60.3918C72.4854 60.1918 72.1625 59.8522 71.9646 59.8355C71.2146 59.773 70.4437 59.7335 69.7062 59.8522C69.2583 59.9251 68.8292 60.2626 68.4437 60.5501C67.5437 61.2189 67.1583 61.2355 66.325 60.5064C63.975 58.446 61.6229 56.3897 59.2896 54.3126C58.9354 53.9981 58.6729 53.8897 58.2146 54.1356C57.5167 54.5085 56.8604 54.2856 56.5521 53.6814C56.2396 53.0689 56.4417 52.4126 57.1792 52.0772C57.7104 51.8335 57.8229 51.5001 57.8 50.9814C57.7688 50.2272 57.7792 49.471 57.7979 48.7168C57.8167 47.9418 58.2292 47.496 58.9042 47.471C59.6062 47.446 60.0958 47.9085 60.125 48.7001C60.1583 49.6105 60.1208 50.523 60.1458 51.4335C60.1521 51.671 60.2083 51.9897 60.3667 52.1293C62.6958 54.2064 65.0458 56.2606 67.4042 58.3314C69.0771 57.0522 70.9687 57.4168 72.7833 57.5606C73.9208 57.6522 74.8167 58.8231 74.8458 59.9897C74.8875 61.6022 74.8937 63.2189 74.8458 64.8335C74.8042 66.1835 73.6771 67.271 72.3187 67.3481C71.7229 67.3814 71.1229 67.3543 70.4562 67.3543C70.5042 67.523 70.5146 67.6481 70.5729 67.7418C71.9208 69.8939 71.9979 72.2564 71.4583 74.6064C70.8042 77.4481 68.8979 79.1668 66.0646 79.8543C65.9187 79.8897 65.7771 79.9522 65.6333 80.0022H46.5708C45.9979 79.6439 45.5917 79.1751 45.8354 78.4585C46.0771 77.7481 46.6833 77.6126 47.3583 77.6564C47.5667 77.6689 47.775 77.6564 47.9833 77.6564C53.5021 77.6564 59.0208 77.6647 64.5375 77.6522C67.0604 77.646 68.9896 75.9835 69.2958 73.496C69.4021 72.6272 69.3917 71.7189 69.2625 70.8543C68.8708 68.2231 66.5229 66.5147 63.9062 66.9147C61.9542 67.2147 60.0104 67.571 58.0604 67.8981C52.2917 68.8647 46.5208 69.8251 40.7521 70.7918C37.9104 71.2689 35.0708 71.7522 32.2083 72.2376V77.6564C35.1833 77.6564 38.0938 77.6626 41.0063 77.6522C41.6667 77.6501 42.2667 77.7064 42.5458 78.4293C42.8313 79.1668 42.3729 79.5897 41.8813 80.0001H14.375ZM26.3271 34.2689C23.5333 35.2001 22.2188 36.9855 22.2167 39.7668C22.2125 43.5168 22.2229 47.2647 22.2063 51.0147C22.2042 51.5064 22.2979 51.821 22.7896 52.0543C23.5396 52.4126 23.7604 53.0272 23.4729 53.6418C23.1729 54.2856 22.5042 54.5147 21.7604 54.1189C21.3208 53.8855 21.0771 54.0001 20.75 54.2897C18.4146 56.3626 16.0646 58.4251 13.7146 60.4814C12.8354 61.2501 12.4708 61.221 11.5333 60.5356C11.1104 60.2251 10.6125 59.9356 10.1083 59.8397C9.47917 59.7189 8.8125 59.8189 8.16042 59.8043C7.72292 59.796 7.47708 59.9356 7.48333 60.4272C7.49792 61.7543 7.49583 63.0835 7.48333 64.4106C7.47917 64.8397 7.6625 65.0251 8.08959 65.023C9.39167 65.0147 10.6938 65.0335 11.9958 65.0106C12.2375 65.0064 12.5 64.8939 12.7125 64.7647C17.3854 61.9356 22.0521 59.098 26.7167 56.2543C26.9063 56.1397 27.1667 55.9689 27.1979 55.7897C27.4042 54.6168 27.7333 53.4293 27.6938 52.2564C27.6083 49.6314 27.3229 47.0126 27.1375 44.3918C27.0833 43.6126 27.5375 43.0689 28.2063 43.021C28.8313 42.9772 29.325 43.4251 29.4479 44.1668C29.4896 44.423 29.5021 44.6835 29.5208 44.9439C29.6458 46.6043 29.7021 48.2751 29.9083 49.9251C30.1562 51.9126 30.0417 53.8564 29.625 55.8085C29.2917 57.3751 29.0625 58.9647 28.7812 60.5772H51.2208C50.9896 59.2522 50.7542 57.9751 50.5458 56.6939C50.3167 55.2856 49.85 53.8564 49.9354 52.4626C50.3208 46.2543 50.8604 40.0564 51.3625 33.8564C51.3979 33.4189 51.3042 33.2085 50.8688 33.0585C49.0271 32.421 47.2 31.7418 45.3667 31.0814C45.2604 31.0439 45.1417 31.0397 44.9729 31.0105C44.9729 31.671 44.9792 32.2689 44.9729 32.8647C44.9333 35.8064 42.8187 37.9897 40.0083 37.9918C37.1937 37.9939 35.0708 35.8147 35.0292 32.8793C35.0208 32.2668 35.0292 31.6543 35.0292 30.9439C32.9333 31.698 30.9521 32.398 28.9896 33.148C28.8104 33.2168 28.6521 33.6251 28.6667 33.8647C28.7563 35.371 28.8979 36.8751 29.0187 38.3793C29.0875 39.2439 28.7146 39.796 28.0125 39.8793C27.2583 39.9689 26.7729 39.5168 26.6917 38.6064C26.5625 37.1855 26.4542 35.7647 26.3313 34.273L26.3271 34.2689ZM31.1688 20.3272C31.2229 20.6668 31.2479 20.948 31.3125 21.223C32.2792 25.2418 35.8583 28.0772 39.9833 28.096C43.9708 28.1126 47.6146 25.2835 48.6 21.3501C49.1583 19.1251 48.9479 16.8585 48.8 14.6043C48.7771 14.2439 48.6417 13.8939 48.5375 13.4564C43.7396 18.4376 37.7104 19.998 31.1667 20.3293L31.1688 20.3272ZM27.6979 66.4855C30.7479 66.9939 33.6979 67.4481 36.6313 67.9876C38.6333 68.3564 40.6 68.6293 42.6375 68.1376C44.3 67.7376 46.0125 67.5376 47.7021 67.2522C49.2083 66.9981 50.7146 66.7481 52.3 66.4835C52.0792 65.2835 51.8729 64.148 51.6625 63.0001H28.3396C28.1271 64.1501 27.9229 65.2668 27.6979 66.4855ZM32.6125 69.771C32.3146 69.6751 32.1521 69.6001 31.9792 69.5731C26.6708 68.6814 21.3646 67.7647 16.05 66.9168C13.4688 66.5043 11.1292 68.2397 10.75 70.8293C10.6125 71.7689 10.6229 72.7606 10.7521 73.7022C11.025 75.6918 12.4667 77.2251 14.4458 77.521C15.6292 77.6981 16.8583 77.5543 18.0771 77.5543C18.0667 77.5001 18.0563 77.4251 18.0333 77.3522C17.1771 74.4814 18.6021 72.2064 21.5688 71.696C25.2042 71.0689 28.8354 70.4314 32.6125 69.7731V69.771ZM43.4188 7.81471C40.4958 6.43971 36.7354 7.02513 34.1979 9.22513C31.525 11.5439 30.7813 14.5418 31.15 17.9772C37.4438 17.6355 43.1708 16.1439 47.5063 11.0355C46.8333 10.3105 46.2271 9.65638 45.6208 9.0043C44.9479 9.61263 44.3875 10.1564 43.7875 10.6543C42.1479 12.0126 40.3417 13.0772 38.2604 13.6105C37.4813 13.8105 36.8792 13.4939 36.7146 12.8418C36.5417 12.1585 36.8688 11.6376 37.6375 11.373C37.7854 11.323 37.9375 11.2855 38.0854 11.2355C40.1208 10.5501 41.8479 9.38763 43.4188 7.8168V7.81471ZM29.7583 72.646C27.0396 73.1189 24.4292 73.5626 21.8208 74.0293C20.6104 74.246 20.0208 74.9814 20.1313 76.0564C20.2333 77.0501 20.9896 77.6481 22.1813 77.6522C24.4979 77.6585 26.8146 77.6564 29.1333 77.6522C29.3313 77.6522 29.5313 77.6231 29.7604 77.6043V72.646H29.7583ZM54.6188 66.096C57.2854 65.6481 59.8792 65.2106 62.4729 64.7731C62.4812 64.7147 62.4896 64.6564 62.4979 64.5981C59.5 62.7751 56.5 60.9522 53.325 59.0231C53.7792 61.5064 54.1938 63.771 54.6188 66.0939V66.096ZM26.6729 59.021C23.4729 60.971 20.4896 62.7897 17.2938 64.7356C20.1292 65.2106 22.7229 65.646 25.3792 66.0918C25.8063 63.7606 26.2188 61.496 26.6729 59.0189V59.021ZM37.4354 30.3064C37.4354 31.3126 37.3333 32.4293 37.4625 33.521C37.6125 34.798 38.7021 35.6335 39.9542 35.648C41.2521 35.6647 42.3729 34.8376 42.5312 33.5314C42.6646 32.4397 42.5583 31.3189 42.5583 30.3064H37.4354ZM42.5979 4.84805C42.5854 4.02305 42.2063 3.2918 41.4292 2.78555C40.5229 2.19388 39.5667 2.17096 38.6458 2.73555C37.8333 3.23346 37.4 3.97096 37.4042 4.84805H42.5979Z" fill="url(#paint0_linear_105_213)"/>
<path id="Vector_2" d="M61.4833 24.6312C61.7146 23.6625 61.0917 22.1708 62.7187 22.1812C64.3125 22.1916 63.75 23.6583 63.9333 24.5645C65.0458 24.7916 65.4646 25.1416 65.4583 25.8208C65.4521 26.4937 65.0458 26.8354 63.9271 27.0854C63.775 28.0145 64.2792 29.3416 62.6917 29.4937C61.8937 29.5708 61.6625 29.0458 61.5062 27.1145C60.2875 26.7666 59.9167 26.4395 59.9896 25.7187C60.0771 24.8583 60.6896 24.6458 61.4833 24.6312Z" fill="url(#paint1_linear_105_213)"/>
<path id="Vector_3" d="M55.8896 7.74384C54.725 7.55634 54.3021 7.20009 54.3167 6.47717C54.3313 5.7855 54.7646 5.42717 55.8938 5.25425C55.8938 4.848 55.8729 4.41467 55.8979 3.98759C55.9396 3.28759 56.3854 2.8355 57.0104 2.81675C57.6354 2.798 58.1313 3.22717 58.2042 3.91467C58.25 4.348 58.2125 4.78967 58.2125 5.20842C59.4021 5.49175 59.8396 5.8855 59.7938 6.57509C59.7479 7.24384 59.3042 7.58967 58.2271 7.71675C58.2271 8.10634 58.2458 8.51259 58.2229 8.91675C58.175 9.73134 57.7333 10.1855 57.0333 10.1793C56.3313 10.173 55.9229 9.71675 55.8917 8.8855C55.8792 8.52509 55.8896 8.16259 55.8896 7.748V7.74384Z" fill="url(#paint2_linear_105_213)"/>
<path id="Vector_4" d="M20.5229 19.0208C20.7375 18.0667 20.1229 16.5375 21.8188 16.6062C23.2833 16.6646 22.8104 18.0292 22.9563 18.9875C23.7313 19.1021 24.5333 19.3083 24.4646 20.3292C24.4083 21.1542 23.7896 21.4292 22.9167 21.4333C22.9167 21.8521 22.9375 22.2583 22.9125 22.6625C22.8625 23.4687 22.4146 23.9271 21.7188 23.9187C21.0229 23.9104 20.6104 23.4458 20.5813 22.6229C20.5688 22.2625 20.5792 21.9 20.5792 21.6646C20.0563 21.3687 19.5938 21.1687 19.2167 20.8667C19.0583 20.7396 19.0083 20.3896 19.025 20.1479C19.0958 19.2437 19.7792 19.075 20.5229 19.0167V19.0208Z" fill="url(#paint3_linear_105_213)"/>
<path id="Vector_5" d="M39.9917 47.3397C38.1313 48.8584 36.0688 49.3418 33.7792 48.5855C33.3167 48.4334 32.8646 48.2022 32.4542 47.9376C31.8771 47.5647 31.7479 46.9168 32.0708 46.3688C32.3854 45.8355 33.0104 45.6772 33.6354 45.9376C34.1833 46.1647 34.7313 46.4626 35.3042 46.5418C36.7875 46.7438 37.9958 46.1938 38.9188 45.0001C39.6208 44.0918 40.3646 44.1022 41.0833 45.0022C42.3854 46.6334 44.2521 47.0376 46.0958 46.0876C46.9292 45.6584 47.5729 45.7605 47.9292 46.3772C48.3042 47.0272 48.0479 47.7022 47.2 48.148C44.9792 49.3126 42.8063 49.2022 40.6958 47.848C40.4583 47.6959 40.2375 47.5188 39.9896 47.3418L39.9917 47.3397Z" fill="url(#paint4_linear_105_213)"/>
</g>
</g>
</g>
<defs>
<linearGradient id="paint0_linear_105_213" x1="40.0073" y1="-0.00195313" x2="40.0073" y2="80.0022" gradientUnits="userSpaceOnUse">
<stop offset="0.151042" stop-color="#B9D421"/>
<stop offset="1" stop-color="#73C76C"/>
</linearGradient>
<linearGradient id="paint1_linear_105_213" x1="62.7196" y1="22.1812" x2="62.7196" y2="29.5009" gradientUnits="userSpaceOnUse">
<stop offset="0.151042" stop-color="#B9D421"/>
<stop offset="1" stop-color="#73C76C"/>
</linearGradient>
<linearGradient id="paint2_linear_105_213" x1="57.0567" y1="2.81616" x2="57.0567" y2="10.1793" gradientUnits="userSpaceOnUse">
<stop offset="0.151042" stop-color="#B9D421"/>
<stop offset="1" stop-color="#73C76C"/>
</linearGradient>
<linearGradient id="paint3_linear_105_213" x1="21.7453" y1="16.604" x2="21.7453" y2="23.9189" gradientUnits="userSpaceOnUse">
<stop offset="0.151042" stop-color="#B9D421"/>
<stop offset="1" stop-color="#73C76C"/>
</linearGradient>
<linearGradient id="paint4_linear_105_213" x1="39.9975" y1="44.323" x2="39.9975" y2="48.9488" gradientUnits="userSpaceOnUse">
<stop offset="0.151042" stop-color="#B9D421"/>
<stop offset="1" stop-color="#73C76C"/>
</linearGradient>
<clipPath id="clip0_105_213">
<rect width="80" height="80" fill="white"/>
</clipPath>
</defs>
</svg>
