<svg width="54" height="53" viewBox="0 0 54 53" fill="none" xmlns="http://www.w3.org/2000/svg">
<g clip-path="url(#clip0_106_305)">
<path d="M47.1106 22.0629C47.1106 37.4853 27.2819 50.7044 27.2819 50.7044C27.2819 50.7044 7.45319 37.4853 7.45319 22.0629C7.45319 16.8041 9.54227 11.7605 13.2609 8.04194C16.9795 4.32334 22.023 2.23425 27.2819 2.23425C32.5408 2.23425 37.5843 4.32334 41.3029 8.04194C45.0215 11.7605 47.1106 16.8041 47.1106 22.0629Z" stroke="#BC6C64" stroke-width="4.40638" stroke-linecap="round" stroke-linejoin="round"/>
<path d="M27.2778 28.6726C30.9281 28.6726 33.8873 25.7134 33.8873 22.0631C33.8873 18.4127 30.9281 15.4535 27.2778 15.4535C23.6274 15.4535 20.6682 18.4127 20.6682 22.0631C20.6682 25.7134 23.6274 28.6726 27.2778 28.6726Z" stroke="#BC6C64" stroke-width="4.40638" stroke-linecap="round" stroke-linejoin="round"/>
</g>
<defs>
<clipPath id="clip0_106_305">
<rect width="52.8765" height="52.8765" fill="white" transform="translate(0.84375 0.0311279)"/>
</clipPath>
</defs>
</svg>
