<svg width="306" height="472" viewBox="0 0 306 472" fill="none" xmlns="http://www.w3.org/2000/svg">
<g opacity="0.5">
<path d="M132.653 225.167C126.864 217.5 122.069 209.592 117.442 201.56C115.977 199.017 116.487 198.166 119.13 197.881C135.519 196.111 151.965 194.835 168.44 195.203C177.164 195.398 185.637 197.973 193.75 201.365C207.383 207.064 219.341 215.356 229.776 225.701C236.646 232.51 242.717 240.086 247.028 248.877C249.618 254.161 249.149 256.563 244.473 260.032C231.578 269.6 216.936 273.993 200.984 274.21C183.75 274.444 170.121 266.511 158.258 254.853C148.832 245.591 139.934 235.854 132.654 225.166L132.653 225.167Z" fill="url(#paint0_linear_106_117)"/>
<path d="M265.732 125.14C277.973 142.018 287.05 157.319 292.931 174.282C297.468 187.369 295.918 200.275 290.743 212.951C286.605 223.088 280.126 231.577 272.631 239.325C270.201 241.837 267.175 243.923 264.099 245.624C259.456 248.189 256.079 246.818 250.96 240.311C243.695 231.074 237.81 221.082 233.43 210.058C228.633 197.982 226.185 185.598 225.59 172.73C225.115 162.478 227.383 152.697 230.825 143.181C235.272 130.892 240.023 118.715 245.716 106.93C246.798 104.69 247.436 102.978 250.02 105.96C256.084 112.956 262.127 119.952 265.731 125.141L265.732 125.14Z" fill="url(#paint1_linear_106_117)"/>
<path d="M406.495 245.497C408.496 248.26 409.895 250.288 411.396 252.236C412.915 254.209 412.709 255.931 410.076 255.671C400.148 254.693 393.38 261.499 385.586 265.487C371.71 272.587 357.468 278.205 342.009 280.805C331.697 282.54 321.405 282.753 311.159 281.275C292.702 278.612 276.858 270.18 262.932 257.971C261.77 256.952 259.985 255.625 260.694 253.962C261.479 252.12 263.52 253.373 265.033 253.208C279.942 251.584 295.194 252.451 309.504 246.47C317.321 243.203 324.918 239.65 331.566 234.416C337.428 229.8 342.784 224.574 347.278 218.577C348.503 216.943 349.98 216.293 351.805 216.325C368.548 216.614 383.226 222.321 395.7 233.502C399.949 237.309 404.127 241.251 406.496 245.498L406.495 245.497Z" fill="url(#paint2_linear_106_117)"/>
<path d="M202.3 395.418C193.363 382.788 187.762 369.027 187.72 353.299C187.7 345.995 189.23 339.012 191.298 332.084C191.814 330.359 193.094 329.951 194.534 329.364C202.088 326.292 209.619 323.098 216.126 318.073C231.595 306.127 242.992 291.254 248.38 272.195C249.437 268.456 251.547 265.261 253.355 261.91C254.489 259.806 255.647 259.189 257.383 261.719C260.796 266.697 262.339 272.426 263.633 278.059C268.825 300.671 266.001 322.332 255.375 343.045C246.86 359.642 234.912 373.308 221.092 385.601C216.616 389.582 211.44 393.175 210.182 399.905C209.751 402.21 207.747 403.234 205.898 400.413C204.774 398.699 203.505 397.08 202.301 395.417L202.3 395.418Z" fill="url(#paint3_linear_106_117)"/>
<path d="M131.289 297.442C142.809 285.557 158.283 284.289 173.312 281.579C183.574 279.728 193.806 280.389 204.109 280.396C216.517 280.404 228.237 276.713 239.246 270.951C240.032 270.54 240.752 269.385 241.719 270.266C242.398 270.883 241.748 271.759 241.515 272.535C237.626 285.49 230.195 296.207 220.73 305.656C206.103 320.254 187.496 326.472 167.876 329.979C151.712 332.868 135.349 334.631 119.101 337.083C113.202 337.973 107.395 339.448 101.53 340.579C100.408 340.795 98.9898 341.649 98.1235 340.411C97.4893 339.504 98.1779 338.34 98.5548 337.301C103.692 323.132 111.705 311.109 124.32 302.478C126.684 300.859 128.968 299.125 131.29 297.443L131.289 297.442Z" fill="url(#paint4_linear_106_117)"/>
<path d="M275.239 245.411C284.497 237.372 290.641 228.197 295.451 218.087C297.557 213.662 299.87 209.162 300.226 204.258C300.651 198.388 303.652 193.64 306.003 188.644C310.284 179.553 315.002 170.67 320.709 162.355C322.416 159.867 324.271 157.597 326.762 155.826C333.215 151.237 339.631 146.594 346.009 141.903C357.939 133.129 371.775 130.767 386.071 129.949C388.745 129.796 388.179 131.399 387.38 132.86C385.356 136.566 383.331 140.275 381.196 143.918C375.002 154.486 370.014 165.664 364.758 176.695C357.767 191.364 350.054 205.55 339.428 217.945C324.557 235.295 305.314 243.888 282.823 245.771C280.618 245.956 278.364 245.576 275.237 245.41L275.239 245.411Z" fill="url(#paint5_linear_106_117)"/>
<path d="M227.7 214.615C220.038 208.908 212.442 203.435 203.999 199.258C192.94 193.785 181.483 189.621 169.03 188.983C166.975 188.878 165.957 187.849 165.444 186.247C158.625 164.943 154.198 143.31 157.405 120.814C159.146 108.609 160.249 107.778 171.642 111.579C187.815 116.977 203.171 124.244 217.364 133.792C219.942 135.526 223.816 136.462 224.738 139.254C225.643 141.997 223.262 145.118 222.381 148.09C217.931 163.109 218.656 178.18 221.767 193.331C223.246 200.536 225.741 207.424 227.7 214.616L227.7 214.615Z" fill="url(#paint6_linear_106_117)"/>
<path d="M173.27 275.243C164.092 276.879 155.144 277.914 146.585 280.763C143.48 281.797 140.217 282.716 137.749 284.794C135.043 287.072 132.316 287.02 129.348 286.199C114.796 282.178 102.825 274.133 92.3011 263.359C83.8513 254.708 77.2544 244.724 69.9764 235.213C67.6202 232.134 68.4835 231.585 71.8483 230.835C81.8168 228.613 91.7564 226.456 102.036 226.331C110.436 226.227 118.571 227.67 126.485 230.39C131.189 232.007 133.246 236.603 136.083 240.026C146.813 252.972 158.309 264.968 172.642 273.98C172.827 274.096 172.875 274.429 173.268 275.243L173.27 275.243Z" fill="url(#paint7_linear_106_117)"/>
<path d="M302.433 181.531C299.022 169.552 293.876 158.786 288.241 148.265C284.912 142.05 281.416 135.839 277.224 130.2C273.987 125.846 274.102 121.271 274.414 116.603C275.586 99.1777 283.902 84.49 292.645 69.9908C293.774 68.1183 294.537 68.5794 295.579 69.9867C307.107 85.5367 318.697 101.049 323.977 120.131C326.215 128.222 326.952 136.464 326.21 144.816C326.057 146.533 326.022 148.376 324.276 149.549C316.992 154.447 313.193 162.105 308.89 169.321C306.535 173.27 304.572 177.452 302.431 181.529L302.433 181.531Z" fill="url(#paint8_linear_106_117)"/>
<path d="M157.718 184.4C153.543 181.387 151.694 176.786 149.492 172.547C145.078 164.044 140.188 155.93 133.299 149.18C130.786 146.717 130.272 143.583 129.733 140.324C128.398 132.257 127.081 124.196 128.775 116.044C129.999 110.155 132.286 104.739 136.875 100.169C135.328 108.1 139.07 114.186 145.023 117.415C150.921 120.613 150.535 124.479 150.179 129.627C149.503 139.437 150.519 149.227 151.976 158.93C153.265 167.518 155.507 175.915 157.718 184.4Z" fill="url(#paint9_linear_106_117)"/>
<path d="M101.337 135.045C109.254 137.852 115.194 141.897 120.949 146.163C132.025 154.374 139.363 165.48 145.185 177.798C146.68 180.961 149.159 183.665 151.225 186.55C152.413 188.21 152.622 189.218 150.009 189.182C147.708 189.152 145.399 189.318 143.102 189.505C133.82 190.261 134.101 190.138 129.919 181.664C126.264 174.26 121.668 167.322 117.899 159.968C115.217 154.734 111.487 150.218 108.582 145.139C106.757 141.949 103.505 139.629 101.338 135.044L101.337 135.045Z" fill="url(#paint10_linear_106_117)"/>
<path d="M192.701 70.5279C196.065 75.1726 199.286 79.9318 202.827 84.4374C208.7 91.9093 215.019 98.9942 221.815 105.66C225.489 109.265 228.851 113.185 232.375 116.944C233.396 118.033 233.135 119.166 232.666 120.358C231.317 123.776 229.93 127.18 228.653 130.625C227.764 133.025 226.424 131.794 225.084 131.224C221.334 129.63 219.87 125.76 217.066 123.188C203.25 110.513 195.032 94.7719 192.169 76.2542C191.887 74.4355 191.892 72.5728 191.764 70.7319C192.076 70.6639 192.389 70.5952 192.702 70.5272L192.701 70.5279Z" fill="url(#paint11_linear_106_117)"/>
<path d="M203.072 117.568C197.766 116.241 193.685 113.485 189.248 111.623C181.697 108.455 173.994 105.8 166.131 103.599C159.024 101.61 155.825 103.437 153.698 110.745C152.77 113.932 151.634 114.719 148.623 112.581C145.7 110.503 143.12 108.475 143.343 104.544C143.573 100.55 146.253 98.7739 149.722 97.5347C159.778 93.9428 169.299 95.6801 178.48 100.357C184.54 103.444 190.45 106.833 196.411 110.115C199.312 111.713 201.393 114.063 203.072 117.568Z" fill="url(#paint12_linear_106_117)"/>
</g>
<defs>
<linearGradient id="paint0_linear_106_117" x1="146.89" y1="176.882" x2="219.976" y2="277.783" gradientUnits="userSpaceOnUse">
<stop stop-color="#FFD1BA"/>
<stop offset="1" stop-color="#FFE4DE"/>
</linearGradient>
<linearGradient id="paint1_linear_106_117" x1="217.334" y1="126.184" x2="290.37" y2="227.015" gradientUnits="userSpaceOnUse">
<stop stop-color="#FFD1BA"/>
<stop offset="1" stop-color="#FFE4DE"/>
</linearGradient>
<linearGradient id="paint2_linear_106_117" x1="310.028" y1="217.895" x2="362.881" y2="290.861" gradientUnits="userSpaceOnUse">
<stop stop-color="#FFD1BA"/>
<stop offset="1" stop-color="#FFE4DE"/>
</linearGradient>
<linearGradient id="paint3_linear_106_117" x1="205.921" y1="295.563" x2="257.506" y2="366.779" gradientUnits="userSpaceOnUse">
<stop stop-color="#FFD1BA"/>
<stop offset="1" stop-color="#FFE4DE"/>
</linearGradient>
<linearGradient id="paint4_linear_106_117" x1="152.535" y1="281.316" x2="188.095" y2="330.41" gradientUnits="userSpaceOnUse">
<stop stop-color="#FFD1BA"/>
<stop offset="1" stop-color="#FFE4DE"/>
</linearGradient>
<linearGradient id="paint5_linear_106_117" x1="314.661" y1="164.591" x2="349.854" y2="213.178" gradientUnits="userSpaceOnUse">
<stop stop-color="#FFD1BA"/>
<stop offset="1" stop-color="#FFE4DE"/>
</linearGradient>
<linearGradient id="paint6_linear_106_117" x1="158.327" y1="112.056" x2="230.924" y2="212.281" gradientUnits="userSpaceOnUse">
<stop stop-color="#FFD1BA"/>
<stop offset="1" stop-color="#FFE4DE"/>
</linearGradient>
<linearGradient id="paint7_linear_106_117" x1="92.509" y1="214.822" x2="149.005" y2="292.819" gradientUnits="userSpaceOnUse">
<stop stop-color="#FFD1BA"/>
<stop offset="1" stop-color="#FFE4DE"/>
</linearGradient>
<linearGradient id="paint8_linear_106_117" x1="270.156" y1="85.8605" x2="326.714" y2="163.943" gradientUnits="userSpaceOnUse">
<stop stop-color="#FFD1BA"/>
<stop offset="1" stop-color="#FFE4DE"/>
</linearGradient>
<linearGradient id="paint9_linear_106_117" x1="123.377" y1="109.946" x2="170.566" y2="175.094" gradientUnits="userSpaceOnUse">
<stop stop-color="#FFD1BA"/>
<stop offset="1" stop-color="#FFE4DE"/>
</linearGradient>
<linearGradient id="paint10_linear_106_117" x1="104.293" y1="132.903" x2="147.22" y2="192.167" gradientUnits="userSpaceOnUse">
<stop stop-color="#FFD1BA"/>
<stop offset="1" stop-color="#FFE4DE"/>
</linearGradient>
<linearGradient id="paint11_linear_106_117" x1="189.272" y1="72.5364" x2="230.729" y2="129.77" gradientUnits="userSpaceOnUse">
<stop stop-color="#FFD1BA"/>
<stop offset="1" stop-color="#FFE4DE"/>
</linearGradient>
<linearGradient id="paint12_linear_106_117" x1="157.818" y1="90.8574" x2="186.08" y2="129.876" gradientUnits="userSpaceOnUse">
<stop stop-color="#FFD1BA"/>
<stop offset="1" stop-color="#FFE4DE"/>
</linearGradient>
</defs>
</svg>
