<svg width="207" height="288" viewBox="0 0 207 288" fill="none" xmlns="http://www.w3.org/2000/svg">
<g opacity="0.35">
<path d="M33.3619 69.8795C37.0479 63.4332 41.208 57.6192 45.5073 51.8874C46.8685 50.0721 47.6279 50.1758 48.6352 51.9675C54.8804 63.074 60.7914 74.3723 65.5434 86.1902C68.06 92.4487 68.8087 99.2533 68.8679 106.05C68.9666 117.471 66.7134 128.492 62.5389 139.055C59.791 146.009 56.2553 152.628 51.32 158.367C48.3541 161.815 46.5041 162.213 42.6163 159.946C31.8937 153.695 24.3161 144.627 19.3076 133.358C13.8967 121.184 15.3859 109.086 20.0597 97.1081C23.7727 87.5919 27.9833 78.3057 33.3627 69.88L33.3619 69.8795Z" fill="url(#paint0_linear_106_103)"/>
<path d="M144.935 134.002C136.668 147.836 128.557 158.942 118.294 168.283C110.375 175.49 100.733 178.316 90.151 178.496C81.6887 178.641 73.6848 176.62 65.8989 173.653C63.3743 172.69 60.9709 171.175 58.8267 169.507C55.5906 166.989 55.5373 164.171 58.6031 158.554C62.9558 150.581 68.2646 143.358 74.7653 136.891C81.8867 129.808 89.9409 124.299 98.9036 119.961C106.044 116.503 113.684 115.138 121.493 114.689C131.579 114.108 141.677 113.779 151.784 114.238C153.705 114.325 155.115 114.257 153.783 117C150.657 123.439 147.525 129.861 144.934 134.001L144.935 134.002Z" fill="url(#paint1_linear_106_103)"/>
<path d="M102.252 270.65C100.898 272.913 99.8827 274.524 98.955 276.184C98.0155 277.863 96.7294 278.241 96.1128 276.291C93.7864 268.939 86.8906 266.2 81.6846 261.876C72.4168 254.177 64.0914 245.767 57.5391 235.573C53.1683 228.774 49.8848 221.526 47.8169 213.795C44.0922 199.87 45.2622 186.045 49.6997 172.434C50.0702 171.298 50.4697 169.627 51.8671 169.624C53.4151 169.621 53.1459 171.453 53.724 172.478C59.4146 182.578 63.4403 193.679 72.0444 202.028C76.7446 206.588 81.5816 210.905 87.3233 214.036C92.3875 216.797 97.7307 219.012 103.36 220.38C104.894 220.753 105.805 221.605 106.338 222.912C111.227 234.896 111.639 247.063 107.491 259.329C106.078 263.507 104.549 267.675 102.252 270.651L102.252 270.65Z" fill="url(#paint2_linear_106_103)"/>
<path d="M-66.4181 171.179C-60.1632 160.985 -52.0899 152.818 -40.9267 148.001C-35.7425 145.764 -30.3153 144.727 -24.7628 144.088C-23.3808 143.929 -22.7004 144.715 -21.8456 145.56C-17.364 149.992 -12.8028 154.372 -7.25199 157.466C5.94412 164.823 19.9806 168.395 35.1632 166.423C38.1416 166.037 41.054 166.564 43.9852 166.828C45.8259 166.994 46.6163 167.629 45.3466 169.632C42.8488 173.573 39.247 176.413 35.6379 179.046C21.151 189.617 4.89988 194.202 -13.0519 192.954C-27.4363 191.955 -40.7828 187.624 -53.7236 181.545C-57.9149 179.576 -62.0427 176.991 -67.2074 178.146C-68.977 178.541 -70.3144 177.428 -68.8725 175.256C-67.9967 173.935 -67.2322 172.541 -66.4173 171.18L-66.4181 171.179Z" fill="url(#paint3_linear_106_103)"/>
<path d="M-18.4079 90.9051C-6.4575 95.4737 -0.847277 106.083 5.65196 115.938C10.0897 122.666 12.7338 130.138 15.8647 137.461C19.6346 146.28 25.8241 153.485 33.269 159.554C33.8001 159.987 34.8394 160.148 34.5083 161.103C34.2757 161.773 33.4559 161.578 32.8339 161.648C22.4443 162.827 12.5682 160.809 2.97366 156.959C-11.8507 151.008 -21.9312 139.679 -30.3942 126.804C-37.3656 116.198 -43.5979 105.107 -50.2845 94.3081C-52.7124 90.3873 -55.5277 86.7099 -58.1158 82.8864C-58.6113 82.1547 -59.6492 81.407 -59.0332 80.4146C-58.5817 79.688 -57.5452 79.8231 -56.6927 79.7749C-45.0607 79.113 -34.0793 81.1479 -24.1075 87.4852C-22.2378 88.673 -20.3101 89.7678 -18.4084 90.9059L-18.4079 90.9051Z" fill="url(#paint4_linear_106_103)"/>
<path d="M62.3673 177.358C70.8966 181.49 79.2861 183.064 87.9333 183.405C91.7182 183.554 95.6199 183.829 99.213 182.589C103.513 181.105 107.801 181.793 112.066 181.943C119.828 182.218 127.576 182.867 135.222 184.392C137.508 184.848 139.686 185.475 141.703 186.706C146.927 189.895 152.179 193.042 157.453 196.146C167.318 201.953 173.207 211.065 178.139 220.975C179.061 222.828 177.75 222.914 176.469 222.791C173.219 222.48 169.968 222.17 166.729 221.761C157.335 220.576 147.874 220.434 138.436 220.056C125.885 219.552 113.458 218.389 101.417 214.611C84.5638 209.324 72.6012 198.265 64.4188 182.856C63.6166 181.346 63.2011 179.629 62.367 177.357L62.3673 177.358Z" fill="url(#paint5_linear_106_103)"/>
<path d="M69.7843 134.206C71.508 127.025 73.0856 119.962 73.4845 112.692C74.0073 103.168 73.4801 93.7593 70.1434 84.7166C69.5929 83.2248 70.0139 82.1879 70.996 81.3359C84.0596 70.0077 98.0841 60.2782 115.045 55.7117C124.247 53.234 125.173 53.7648 125.939 63.0174C127.025 76.1519 126.535 89.275 124.07 102.266C123.622 104.625 124.136 107.663 122.433 109.168C120.759 110.646 117.817 109.903 115.436 110.182C103.411 111.59 92.9216 116.692 83.1028 123.513C78.4336 126.757 74.2979 130.626 69.7839 134.207L69.7843 134.206Z" fill="url(#paint6_linear_106_103)"/>
<path d="M10.1408 113.98C6.18566 107.956 2.7266 101.913 -1.90227 96.6986C-3.5813 94.8068 -5.22777 92.7679 -7.45554 91.6468C-9.89781 90.4172 -10.6904 88.4631 -11.0105 86.1046C-12.5812 74.5408 -10.508 63.5858 -6.05505 52.8295C-2.47915 44.1925 2.60785 36.4666 7.1511 28.4008C8.62176 25.7896 9.27474 26.2359 10.8315 28.3987C15.444 34.8058 20.0015 41.2121 23.2187 48.4782C25.8485 54.4159 27.2991 60.6348 27.7748 67.0861C28.0572 70.9207 25.4175 73.7814 23.8483 76.8387C17.9143 88.4027 12.8894 100.222 10.8473 113.15C10.821 113.316 10.5989 113.452 10.1405 113.979L10.1408 113.98Z" fill="url(#paint7_linear_106_103)"/>
<path d="M116.034 177.241C123.508 171.172 129.592 164.239 135.353 157.033C138.756 152.777 142.105 148.403 144.837 143.707C146.945 140.082 150.231 138.772 153.643 137.573C166.382 133.103 179.349 134.543 192.312 136.343C193.986 136.575 193.891 137.257 193.208 138.426C185.667 151.35 178.171 164.306 166.219 173.864C161.151 177.917 155.519 180.949 149.358 182.963C148.091 183.378 146.771 183.913 145.406 183.03C139.71 179.344 133.112 178.976 126.675 178.114C123.152 177.642 119.583 177.52 116.035 177.24L116.034 177.241Z" fill="url(#paint8_linear_106_103)"/>
<path d="M69.9573 75.2843C70.8283 71.4006 73.5346 68.6863 75.8769 65.8319C80.575 60.1079 84.853 54.1635 87.5528 47.2147C88.538 44.6793 90.6085 43.3608 92.7606 41.9856C98.0864 38.5821 103.413 35.1936 109.721 33.9165C114.278 32.9938 118.823 32.9704 123.467 34.8405C117.361 36.1549 114.174 40.6657 113.692 45.8786C113.214 51.0424 110.35 51.9446 106.584 53.2587C99.4071 55.7632 92.7599 59.465 86.3086 63.4526C80.5981 66.9822 75.3139 71.131 69.9573 75.2843Z" fill="url(#paint9_linear_106_103)"/>
<path d="M87.8714 20.2014C88.2855 26.6814 87.2189 32.1331 85.939 37.5206C83.4757 47.8901 77.8171 56.484 70.8356 64.3695C69.0431 66.394 67.8766 68.9785 66.4548 71.3247C65.6374 72.6739 64.9847 73.1292 64.2145 71.2617C63.5356 69.6177 62.7153 68.0266 61.883 66.4517C58.5216 60.0862 58.6948 60.2487 63.4433 54.698C67.5921 49.8475 71.1234 44.4709 75.2017 39.5549C78.1049 36.0559 80.1785 32.0316 82.9032 28.4214C84.6148 26.1542 85.274 23.1374 87.8722 20.2019L87.8714 20.2014Z" fill="url(#paint10_linear_106_103)"/>
<path d="M161.516 65.4887C159.24 69.2927 156.838 73.0297 154.714 76.9174C151.192 83.3641 148.081 90.0099 145.412 96.8675C143.969 100.575 142.207 104.158 140.608 107.805C140.145 108.863 139.26 109.022 138.27 109.051C135.432 109.133 132.59 109.183 129.754 109.324C127.778 109.422 128.245 108.095 128.242 106.97C128.234 103.82 130.538 101.603 131.512 98.8276C136.314 85.1528 144.999 74.5233 157.285 66.8532C158.492 66.1001 159.817 65.5364 161.086 64.8849C161.229 65.0862 161.374 65.2879 161.517 65.4892L161.516 65.4887Z" fill="url(#paint11_linear_106_103)"/>
<path d="M131.247 87.1731C130.576 82.9992 131.292 79.2606 131.265 75.5409C131.218 69.2119 130.761 62.9302 129.932 56.6727C129.182 51.0178 126.911 49.3009 121.071 50.0131C118.523 50.3238 117.619 49.7557 118.222 46.9661C118.808 44.2564 119.464 41.806 122.325 40.7686C125.233 39.7159 127.311 41.0803 129.247 43.1683C134.86 49.22 136.522 56.514 135.993 64.461C135.644 69.707 135.035 74.9373 134.516 80.1719C134.264 82.7196 133.227 84.9133 131.247 87.1731Z" fill="url(#paint12_linear_106_103)"/>
</g>
<defs>
<linearGradient id="paint0_linear_106_103" x1="72.0042" y1="65.3019" x2="22.5484" y2="147.941" gradientUnits="userSpaceOnUse">
<stop stop-color="#FFD1BA"/>
<stop offset="1" stop-color="#FFE4DE"/>
</linearGradient>
<linearGradient id="paint1_linear_106_103" x1="129.466" y1="99.9294" x2="80.044" y2="182.511" gradientUnits="userSpaceOnUse">
<stop stop-color="#FFD1BA"/>
<stop offset="1" stop-color="#FFE4DE"/>
</linearGradient>
<linearGradient id="paint2_linear_106_103" x1="92.5089" y1="193.704" x2="56.7451" y2="253.464" gradientUnits="userSpaceOnUse">
<stop stop-color="#FFD1BA"/>
<stop offset="1" stop-color="#FFE4DE"/>
</linearGradient>
<linearGradient id="paint3_linear_106_103" x1="5.63802" y1="143.364" x2="-29.2679" y2="201.691" gradientUnits="userSpaceOnUse">
<stop stop-color="#FFD1BA"/>
<stop offset="1" stop-color="#FFE4DE"/>
</linearGradient>
<linearGradient id="paint4_linear_106_103" x1="-0.484285" y1="101.094" x2="-24.5472" y2="141.303" gradientUnits="userSpaceOnUse">
<stop stop-color="#FFD1BA"/>
<stop offset="1" stop-color="#FFE4DE"/>
</linearGradient>
<linearGradient id="paint5_linear_106_103" x1="131.792" y1="180.775" x2="107.977" y2="220.568" gradientUnits="userSpaceOnUse">
<stop stop-color="#FFD1BA"/>
<stop offset="1" stop-color="#FFE4DE"/>
</linearGradient>
<linearGradient id="paint6_linear_106_103" x1="121.549" y1="53.7015" x2="72.4242" y2="135.787" gradientUnits="userSpaceOnUse">
<stop stop-color="#FFD1BA"/>
<stop offset="1" stop-color="#FFE4DE"/>
</linearGradient>
<linearGradient id="paint7_linear_106_103" x1="28.497" y1="38.2066" x2="-9.73251" y2="102.087" gradientUnits="userSpaceOnUse">
<stop stop-color="#FFD1BA"/>
<stop offset="1" stop-color="#FFE4DE"/>
</linearGradient>
<linearGradient id="paint8_linear_106_103" x1="174.192" y1="125.192" x2="135.92" y2="189.142" gradientUnits="userSpaceOnUse">
<stop stop-color="#FFD1BA"/>
<stop offset="1" stop-color="#FFE4DE"/>
</linearGradient>
<linearGradient id="paint9_linear_106_103" x1="112.412" y1="28.2245" x2="80.48" y2="81.5816" gradientUnits="userSpaceOnUse">
<stop stop-color="#FFD1BA"/>
<stop offset="1" stop-color="#FFE4DE"/>
</linearGradient>
<linearGradient id="paint10_linear_106_103" x1="90.2928" y1="21.6505" x2="61.2453" y2="70.188" gradientUnits="userSpaceOnUse">
<stop stop-color="#FFD1BA"/>
<stop offset="1" stop-color="#FFE4DE"/>
</linearGradient>
<linearGradient id="paint11_linear_106_103" x1="159.046" y1="63.6639" x2="130.993" y2="110.538" gradientUnits="userSpaceOnUse">
<stop stop-color="#FFD1BA"/>
<stop offset="1" stop-color="#FFE4DE"/>
</linearGradient>
<linearGradient id="paint12_linear_106_103" x1="136.455" y1="46.8884" x2="117.331" y2="78.8449" gradientUnits="userSpaceOnUse">
<stop stop-color="#FFD1BA"/>
<stop offset="1" stop-color="#FFE4DE"/>
</linearGradient>
</defs>
</svg>
