<svg width="248" height="420" viewBox="0 0 248 420" fill="none" xmlns="http://www.w3.org/2000/svg">
<g opacity="0.5">
<path d="M18.2504 110.462C24.4149 103.094 31.0387 96.6395 37.8211 90.3216C39.9687 88.3206 40.912 88.6259 41.7859 91.1373C47.2047 106.705 52.1541 122.441 55.509 138.574C57.2858 147.118 56.6867 155.953 55.2114 164.622C52.7314 179.188 47.3479 192.708 39.6222 205.207C34.5366 213.434 28.5239 221.056 20.9301 227.238C16.3667 230.952 13.92 231.037 9.48645 227.264C-2.74137 216.857 -10.3219 203.581 -14.1288 188.089C-18.2415 171.351 -13.5849 156.285 -4.90068 142.1C1.99859 130.829 9.47891 119.965 18.2513 110.463L18.2504 110.462Z" fill="url(#paint0_linear_106_89)"/>
<path d="M145.699 217.57C132.015 233.301 119.153 245.593 103.953 255.145C92.2246 262.516 79.3019 263.915 65.7856 261.73C54.9768 259.984 45.2456 255.585 36.0081 250.03C33.0129 248.228 30.2981 245.751 27.9483 243.137C24.402 239.192 24.9768 235.592 30.1624 229.138C37.5242 219.978 45.9323 211.992 55.6857 205.24C66.37 197.845 77.883 192.668 90.2859 189.188C100.167 186.415 110.207 186.42 120.254 187.629C133.23 189.19 146.164 191.075 158.929 193.965C161.355 194.514 163.167 194.75 160.845 197.939C155.395 205.425 149.942 212.889 145.698 217.569L145.699 217.57Z" fill="url(#paint1_linear_106_89)"/>
<path d="M60.1679 381.84C57.9276 384.412 56.2669 386.232 54.707 388.134C53.1276 390.058 51.4036 390.246 51.0632 387.622C49.7783 377.729 41.6218 372.669 35.9792 365.974C25.9341 354.056 17.2513 341.447 11.2333 326.972C7.21877 317.316 4.69128 307.337 3.82174 297.021C2.25565 278.439 6.89955 261.102 15.6555 244.782C16.3865 243.42 17.2765 241.383 19.0566 241.698C21.0285 242.048 20.2679 244.319 20.77 245.756C25.7122 259.915 28.3058 274.97 37.3576 287.564C42.3024 294.444 47.477 301.044 54.0742 306.341C59.893 311.012 66.1916 315.052 73.0477 318.079C74.9158 318.904 75.8819 320.196 76.2621 321.982C79.754 338.358 77.5026 353.946 69.4215 368.619C66.6694 373.617 63.7715 378.576 60.1671 381.841L60.1679 381.84Z" fill="url(#paint2_linear_106_89)"/>
<path d="M-131.921 216.692C-121.63 205.138 -109.487 196.58 -94.1724 192.993C-87.0604 191.327 -79.9129 191.245 -72.6965 191.698C-70.9005 191.811 -70.2133 192.967 -69.3176 194.237C-64.622 200.904 -59.8129 207.521 -53.4505 212.728C-38.325 225.107 -21.266 232.858 -1.48262 233.811C2.39823 233.998 5.98654 235.334 9.65878 236.34C11.9649 236.971 12.8266 237.96 10.7527 240.221C6.67305 244.669 1.43858 247.464 -3.75807 249.994C-24.6174 260.149 -46.3575 262.28 -68.9327 256.596C-87.0216 252.041 -103.029 243.481 -118.121 232.788C-123.009 229.324 -127.675 225.091 -134.515 225.383C-136.859 225.482 -138.308 223.761 -135.977 221.324C-134.56 219.842 -133.268 218.241 -131.92 216.693L-131.921 216.692Z" fill="url(#paint3_linear_106_89)"/>
<path d="M-52.4721 125.425C-38.2968 133.969 -33.5734 148.759 -27.5455 162.79C-23.4296 172.371 -21.7672 182.488 -19.4511 192.528C-16.6626 204.618 -10.4246 215.204 -2.32893 224.632C-1.75152 225.305 -0.464668 225.746 -1.10425 226.887C-1.55325 227.687 -2.55261 227.251 -3.36084 227.199C-16.8598 226.33 -28.9756 221.507 -40.3148 214.415C-57.8344 203.455 -68.0862 186.729 -75.9257 168.404C-82.3832 153.307 -87.7892 137.762 -93.8401 122.485C-96.0373 116.939 -98.7832 111.614 -101.207 106.154C-101.671 105.11 -102.822 103.921 -101.811 102.797C-101.07 101.975 -99.7811 102.384 -98.6846 102.517C-83.7214 104.328 -70.202 109.424 -58.9498 119.769C-56.8398 121.708 -54.6349 123.542 -52.4729 125.426L-52.4721 125.425Z" fill="url(#paint4_linear_106_89)"/>
<path d="M30.6668 253.942C40.5852 261.149 50.9094 265.068 61.8427 267.475C66.6283 268.529 71.5341 269.769 76.3925 269.01C82.2068 268.101 87.5096 269.955 92.9068 271.119C102.729 273.24 112.447 275.835 121.834 279.521C124.642 280.623 127.272 281.918 129.559 283.946C135.485 289.199 141.454 294.404 147.463 299.56C158.699 309.205 164.119 322.153 168.138 335.897C168.891 338.467 167.201 338.277 165.598 337.828C161.531 336.691 157.461 335.554 153.43 334.295C141.738 330.643 129.723 328.303 117.792 325.668C101.924 322.164 86.3648 317.847 71.8937 310.289C51.6388 299.711 38.9287 282.899 32.0247 261.412C31.3477 259.305 31.2104 257.024 30.6667 253.94L30.6668 253.942Z" fill="url(#paint5_linear_106_89)"/>
<path d="M49.954 200.684C53.7872 191.933 57.4075 183.299 59.5742 174.132C62.4128 162.124 63.8879 150.023 61.702 137.747C61.3413 135.722 62.114 134.497 63.559 133.636C82.7786 122.191 102.857 113.002 125.497 111.056C137.78 110.001 138.839 110.888 137.703 122.845C136.089 139.818 132.47 156.417 126.368 172.397C125.26 175.3 125.221 179.284 122.708 180.812C120.24 182.313 116.663 180.696 113.568 180.507C97.9331 179.557 83.4127 183.661 69.3532 190.107C62.6674 193.172 56.5182 197.155 49.9532 200.685L49.954 200.684Z" fill="url(#paint6_linear_106_89)"/>
<path d="M-21.3823 161.321C-25.0444 152.749 -28.0705 144.264 -32.7752 136.568C-34.4816 133.776 -36.1131 130.804 -38.6941 128.868C-41.5236 126.745 -42.087 124.076 -41.9565 120.999C-41.3185 105.916 -36.1791 92.4386 -28.0547 79.7574C-21.5307 69.575 -13.2902 60.8973 -5.66468 51.6629C-3.19621 48.6734 -2.46652 49.3907 -0.977567 52.4999C3.43422 61.711 7.77614 70.9086 10.2151 80.8952C12.2093 89.0563 12.6377 97.3063 11.7715 105.63C11.2563 110.577 7.24219 113.618 4.54649 117.153C-5.64814 130.525 -14.7434 144.429 -20.2931 160.425C-20.3646 160.631 -20.6783 160.753 -21.3824 161.32L-21.3823 161.321Z" fill="url(#paint7_linear_106_89)"/>
<path d="M99.0323 266.037C109.934 260.014 119.263 252.574 128.243 244.712C133.548 240.068 138.811 235.262 143.36 229.907C146.872 225.772 151.355 224.853 155.974 224.105C173.215 221.319 189.399 226.11 205.495 231.36C207.574 232.038 207.297 232.885 206.161 234.217C193.609 248.953 181.109 263.742 163.708 273.187C156.329 277.191 148.466 279.767 140.161 280.927C138.454 281.165 136.65 281.546 135.114 280.11C128.701 274.116 120.383 272.142 112.383 269.576C108.005 268.172 103.488 267.202 99.0339 266.035L99.0323 266.037Z" fill="url(#paint8_linear_106_89)"/>
<path d="M63.6173 125.693C65.6124 120.947 69.6778 118.108 73.3117 115.007C80.6002 108.79 87.404 102.197 92.4272 93.9641C94.2602 90.9603 97.1977 89.7537 100.252 88.4935C107.81 85.3746 115.366 82.275 123.69 82.0879C129.704 81.9526 135.496 82.9596 140.983 86.4005C132.908 86.6811 127.821 91.6983 126.017 98.2263C124.231 104.693 120.378 105.188 115.282 106.002C105.572 107.554 96.2631 110.752 87.1382 114.358C79.0612 117.549 71.3859 121.627 63.6173 125.693Z" fill="url(#paint9_linear_106_89)"/>
<path d="M98.9946 59.638C98.0436 67.9841 95.4415 74.683 92.5826 81.2513C87.08 93.8939 77.9137 103.546 67.2244 111.995C64.48 114.164 62.405 117.189 60.0591 119.852C58.7104 121.384 57.7754 121.815 57.2207 119.261C56.7313 117.012 56.0497 114.799 55.3492 112.604C52.521 103.731 52.7045 103.978 60.0176 97.9927C66.4073 92.7626 72.1308 86.7218 78.4456 81.3921C82.9408 77.5989 86.4994 72.9475 90.7928 68.9719C93.4895 66.4754 95.0173 62.7841 98.9955 59.6388L98.9946 59.638Z" fill="url(#paint10_linear_106_89)"/>
<path d="M182.445 134.108C178.678 138.433 174.767 142.644 171.176 147.11C165.22 154.515 159.741 162.268 154.779 170.392C152.095 174.784 149.034 178.944 146.165 183.224C145.335 184.465 144.172 184.466 142.905 184.277C139.271 183.733 135.642 183.149 131.998 182.682C129.459 182.356 130.357 180.773 130.61 179.34C131.318 175.327 134.758 173.028 136.632 169.717C145.866 153.399 159.35 141.845 176.746 134.881C178.454 134.197 180.27 133.782 182.035 133.241C182.171 133.53 182.309 133.82 182.446 134.109L182.445 134.108Z" fill="url(#paint11_linear_106_89)"/>
<path d="M138.952 154.816C139.05 149.347 140.815 144.75 141.629 140.007C143.013 131.937 143.864 123.834 144.236 115.676C144.572 108.304 142.071 105.6 134.472 105.175C131.157 104.989 130.135 104.059 131.539 100.644C132.904 97.3277 134.298 94.3571 138.178 93.6888C142.122 93.0117 144.456 95.2232 146.445 98.3238C152.211 107.31 152.665 116.978 150.178 126.977C148.536 133.578 146.567 140.099 144.712 146.646C143.81 149.833 141.989 152.39 138.952 154.816Z" fill="url(#paint12_linear_106_89)"/>
</g>
<defs>
<linearGradient id="paint0_linear_106_89" x1="68.5017" y1="113.449" x2="-13.3289" y2="207.398" gradientUnits="userSpaceOnUse">
<stop stop-color="#FFD1BA"/>
<stop offset="1" stop-color="#FFE4DE"/>
</linearGradient>
<linearGradient id="paint1_linear_106_89" x1="133.774" y1="170.653" x2="51.9994" y2="264.537" gradientUnits="userSpaceOnUse">
<stop stop-color="#FFD1BA"/>
<stop offset="1" stop-color="#FFE4DE"/>
</linearGradient>
<linearGradient id="paint2_linear_106_89" x1="65.3161" y1="281.634" x2="6.14042" y2="349.573" gradientUnits="userSpaceOnUse">
<stop stop-color="#FFD1BA"/>
<stop offset="1" stop-color="#FFE4DE"/>
</linearGradient>
<linearGradient id="paint3_linear_106_89" x1="-33.8191" y1="197.712" x2="-91.5753" y2="264.021" gradientUnits="userSpaceOnUse">
<stop stop-color="#FFD1BA"/>
<stop offset="1" stop-color="#FFE4DE"/>
</linearGradient>
<linearGradient id="paint4_linear_106_89" x1="-31.9729" y1="142.489" x2="-71.788" y2="188.2" gradientUnits="userSpaceOnUse">
<stop stop-color="#FFD1BA"/>
<stop offset="1" stop-color="#FFE4DE"/>
</linearGradient>
<linearGradient id="paint5_linear_106_89" x1="118.292" y1="274.132" x2="78.8879" y2="319.372" gradientUnits="userSpaceOnUse">
<stop stop-color="#FFD1BA"/>
<stop offset="1" stop-color="#FFE4DE"/>
</linearGradient>
<linearGradient id="paint6_linear_106_89" x1="134.237" y1="109.98" x2="52.9549" y2="203.3" gradientUnits="userSpaceOnUse">
<stop stop-color="#FFD1BA"/>
<stop offset="1" stop-color="#FFE4DE"/>
</linearGradient>
<linearGradient id="paint7_linear_106_89" x1="19.28" y1="69.0196" x2="-43.9755" y2="141.643" gradientUnits="userSpaceOnUse">
<stop stop-color="#FFD1BA"/>
<stop offset="1" stop-color="#FFE4DE"/>
</linearGradient>
<linearGradient id="paint8_linear_106_89" x1="184.965" y1="213.026" x2="121.64" y2="285.729" gradientUnits="userSpaceOnUse">
<stop stop-color="#FFD1BA"/>
<stop offset="1" stop-color="#FFE4DE"/>
</linearGradient>
<linearGradient id="paint9_linear_106_89" x1="128.415" y1="75.4535" x2="75.58" y2="136.113" gradientUnits="userSpaceOnUse">
<stop stop-color="#FFD1BA"/>
<stop offset="1" stop-color="#FFE4DE"/>
</linearGradient>
<linearGradient id="paint10_linear_106_89" x1="101.747" y1="62.0357" x2="53.6847" y2="117.216" gradientUnits="userSpaceOnUse">
<stop stop-color="#FFD1BA"/>
<stop offset="1" stop-color="#FFE4DE"/>
</linearGradient>
<linearGradient id="paint11_linear_106_89" x1="179.715" y1="131.221" x2="133.299" y2="184.511" gradientUnits="userSpaceOnUse">
<stop stop-color="#FFD1BA"/>
<stop offset="1" stop-color="#FFE4DE"/>
</linearGradient>
<linearGradient id="paint12_linear_106_89" x1="154.776" y1="104.705" x2="123.132" y2="141.036" gradientUnits="userSpaceOnUse">
<stop stop-color="#FFD1BA"/>
<stop offset="1" stop-color="#FFE4DE"/>
</linearGradient>
</defs>
</svg>
