<svg width="46" height="46" viewBox="0 0 46 46" fill="none" xmlns="http://www.w3.org/2000/svg">
<path id="Vector" d="M42.7785 45.3574C37.6032 45.3574 32.49 44.2296 27.4389 41.9739C22.3878 39.7183 17.7921 36.5196 13.6518 32.3777C9.51157 28.2374 6.31363 23.6417 4.05802 18.5906C1.80241 13.5395 0.673775 8.42626 0.672119 3.25094C0.672119 2.50569 0.920534 1.88466 1.41737 1.38782C1.9142 0.890993 2.53524 0.642578 3.28048 0.642578H13.3413C13.9209 0.642578 14.4385 0.839654 14.8939 1.23381C15.3493 1.62796 15.6184 2.09332 15.7013 2.6299L17.316 11.3244C17.3988 11.9869 17.3781 12.5458 17.2539 13.0012C17.1296 13.4567 16.9019 13.85 16.5707 14.1812L10.5466 20.2674C11.3747 21.7993 12.3576 23.279 13.4953 24.7066C14.6331 26.1341 15.8859 27.5112 17.2539 28.8377C18.5373 30.1212 19.8829 31.3119 21.2906 32.4099C22.6983 33.5079 24.1888 34.5115 25.7621 35.4207L31.5998 29.583C31.9725 29.2104 32.4594 28.9313 33.0605 28.7458C33.6617 28.5603 34.2513 28.5082 34.8292 28.5893L43.3996 30.3282C43.9792 30.4938 44.4553 30.7944 44.828 31.23C45.2006 31.6655 45.3869 32.1516 45.3869 32.6882V42.749C45.3869 43.4942 45.1385 44.1153 44.6417 44.6121C44.1448 45.1089 43.5238 45.3574 42.7785 45.3574Z" fill="white"/>
</svg>
