<svg width="33" height="34" viewBox="0 0 33 34" fill="none" xmlns="http://www.w3.org/2000/svg">
<path fill-rule="evenodd" clip-rule="evenodd" d="M6.875 4C6.875 3.27065 7.16473 2.57118 7.68046 2.05546C8.19618 1.53973 8.89565 1.25 9.625 1.25H23.375C24.1043 1.25 24.8038 1.53973 25.3195 2.05546C25.8353 2.57118 26.125 3.27065 26.125 4V6.5575C26.1249 7.68932 25.8453 8.8036 25.3111 9.80144C24.777 10.7993 24.0047 11.6498 23.0629 12.2775L18.9791 15L23.0629 17.7225C24.0047 18.3502 24.777 19.2007 25.3111 20.1986C25.8453 21.1964 26.1249 22.3107 26.125 23.4425V26C26.125 26.7293 25.8353 27.4288 25.3195 27.9445C24.8038 28.4603 24.1043 28.75 23.375 28.75H9.625C8.89565 28.75 8.19618 28.4603 7.68046 27.9445C7.16473 27.4288 6.875 26.7293 6.875 26V23.4425C6.87498 22.3108 7.15433 21.1966 7.68827 20.1988C8.2222 19.201 8.9942 18.3504 9.93575 17.7225L14.0223 15L9.9385 12.2775C8.99644 11.65 8.2239 10.7995 7.68948 9.80165C7.15506 8.80381 6.87528 7.68945 6.875 6.5575V4Z" fill="#546200"/>
</svg>
