<svg width="34" height="34" viewBox="0 0 34 34" fill="none" xmlns="http://www.w3.org/2000/svg">
<path d="M11.431 3.03846C11.431 2.76304 11.3275 2.49891 11.1432 2.30416C10.9589 2.10941 10.7089 2 10.4482 2C10.1876 2 9.93763 2.10941 9.75332 2.30416C9.56902 2.49891 9.46548 2.76304 9.46548 3.03846V5.22615C7.57857 5.38538 6.3416 5.77585 5.43221 6.73815C4.52152 7.69908 4.152 9.00754 4 11H30C29.848 9.00615 29.4785 7.69908 28.5678 6.73815C27.6584 5.77585 26.4201 5.38538 24.5345 5.22477V3.03846C24.5345 2.76304 24.431 2.49891 24.2467 2.30416C24.0624 2.10941 23.8124 2 23.5518 2C23.2911 2 23.0411 2.10941 22.8568 2.30416C22.6725 2.49891 22.569 2.76304 22.569 3.03846V5.13338C21.6976 5.11538 20.7201 5.11538 19.6207 5.11538H14.3793C13.2799 5.11538 12.3024 5.11538 11.431 5.13338V3.03846Z" fill="#CF5402"/>
<path fill-rule="evenodd" clip-rule="evenodd" d="M30 15.9388C30 14.8429 30 13.8686 29.9831 13H4.0169C4 13.8686 4 14.8429 4 15.9388V18.551C4 23.4764 4 25.9398 5.5236 27.4692C7.0472 28.9987 9.4977 29 14.4 29H19.6C24.5023 29 26.9541 29 28.4764 27.4692C29.9987 25.9384 30 23.4764 30 18.551V15.9388ZM19.6 16.2653C18.9966 16.2653 18.418 16.5061 17.9913 16.9348C17.5647 17.3634 17.325 17.9448 17.325 18.551V21.1633C17.325 21.7695 17.5647 22.3509 17.9913 22.7795C18.418 23.2082 18.9966 23.449 19.6 23.449C20.2034 23.449 20.782 23.2082 21.2087 22.7795C21.6353 22.3509 21.875 21.7695 21.875 21.1633V18.551C21.875 17.9448 21.6353 17.3634 21.2087 16.9348C20.782 16.5061 20.2034 16.2653 19.6 16.2653ZM19.6 18.2245C19.5138 18.2245 19.4311 18.2589 19.3702 18.3201C19.3092 18.3814 19.275 18.4644 19.275 18.551V21.1633C19.275 21.2499 19.3092 21.3329 19.3702 21.3942C19.4311 21.4554 19.5138 21.4898 19.6 21.4898C19.6862 21.4898 19.7689 21.4554 19.8298 21.3942C19.8908 21.3329 19.925 21.2499 19.925 21.1633V18.551C19.925 18.4644 19.8908 18.3814 19.8298 18.3201C19.7689 18.2589 19.6862 18.2245 19.6 18.2245ZM15.4231 16.3398C15.6013 16.4139 15.7536 16.5395 15.8607 16.7006C15.9678 16.8617 16.025 17.0511 16.025 17.2449V22.4694C16.025 22.7292 15.9223 22.9784 15.7394 23.1621C15.5566 23.3458 15.3086 23.449 15.05 23.449C14.7914 23.449 14.5434 23.3458 14.3606 23.1621C14.1777 22.9784 14.075 22.7292 14.075 22.4694V19.609L13.789 19.8963C13.6042 20.0694 13.3597 20.1636 13.1071 20.1591C12.8545 20.1546 12.6135 20.0518 12.4349 19.8723C12.2563 19.6928 12.1539 19.4507 12.1495 19.1969C12.145 18.9431 12.2388 18.6975 12.411 18.5118L14.361 16.5527C14.4973 16.4157 14.6709 16.3223 14.8599 16.2844C15.049 16.2465 15.2449 16.2658 15.4231 16.3398Z" fill="#CF5402"/>
</svg>
